<?xml version="1.0" encoding="utf-8"?>
<!-- Generator: Adobe Illustrator 24.0.3, SVG Export Plug-In . SVG Version: 6.00 Build 0)  -->
<svg version="1.1" id="Layer_1" xmlns="http://www.w3.org/2000/svg" xmlns:xlink="http://www.w3.org/1999/xlink" x="0px" y="0px"
	 viewBox="0 0 500 500" style="enable-background:new 0 0 500 500;" xml:space="preserve">
<g id="Layer_2_1_" style="display:none;">
	<path style="fill:#F17F3B;" d="M243.2,499.4c5.8,0,11.5-0.2,17.1-0.6c-0.5,0-1,0.1-1.5,0.1C251.2,499.2,245.5,499.3,243.2,499.4z"
		/>
	<g style="display:inline;">
		<polygon style="fill:#F17F3B;" points="341.6,196.1 340.2,212.8 352.1,212.7 346.5,196 		"/>
		<polygon style="fill:#F17F3B;" points="399.9,183.6 391.1,184.8 392,191.5 400.3,186.9 		"/>
		<path style="fill:#F17F3B;" d="M385.1,454c0.9-0.6,1.8-1.2,2.6-1.7C386.9,452.8,386,453.4,385.1,454L385.1,454z"/>
		<path style="fill:#F17F3B;" d="M265.1,498.3L265.1,498.3c-0.9,0.1-1.7,0.2-2.6,0.3C263.3,498.5,264.2,498.4,265.1,498.3z"/>
		<path style="fill:#F17F3B;" d="M324.3,389.8c-18.4-24.8-43.5-46.7-53-105.7c-15.5,1.1-24.4,2-39.7,2.6
			c7,97.6,31.6,203.6,33.5,211.6c49.6-4.9,91.7-25.8,120-44.3C366.4,436.3,338.5,409,324.3,389.8z"/>
		<polygon style="fill:#F17F3B;" points="394.3,208.5 396.6,226 406.4,218.9 405.2,210.2 		"/>
		<path style="fill:#F17F3B;" d="M474.6,134.2C397.6-10.3,268.1-0.9,241.8,2.8c-26.3,3.8-189.6,15-229,152s24.4,229,24.4,229
			C108,471,179.8,498.8,242,499.3c-10.9-21.4-16.6-57.2-33.8-212.1c-8.9,0.2-24.5,0.3-33.1,0.2c-2.2,12.4-12.5,38.4-17.9,50.6
			c-14.8,33.2-50.7,78.8-67.8,99.6c-6.9-5.8-13.8-12.1-20.7-19c18.9-19.8,54.1-57.8,62-74.2c6.5-13.5,23-37,25.4-57.1
			c-77.7-0.9-127-5.7-154-9.5c-0.8-6.5-1.3-13.2-1.6-20.1c37.1,2.9,106.1,7.9,140,7.9c4.9,0,6.2,0,16.7-0.2
			c0.3-12.2-0.2-28-1.8-49.1c-4.1-53.7-64.5-107.8-100.6-135.5c5.8-6.2,12-11.9,18.4-17.1c51.6,33.4,96.6,109.8,100.7,133
			c3,16.8,6,41.7,3.4,68.6c6.9-0.1,21.2-0.3,29.2-0.5c-0.2-1.7-0.4-3.3-0.6-5C190.2,122.7,242.9,32.4,265,1.2
			c6.1-0.1,13,0.1,20.6,0.7C272,33.3,238.3,117.3,231,200.6c-1.7,18.9-1.6,40.6-0.4,63.6c14.1-0.5,22.7-1.2,38.6-2.1
			c-1.2-9.6-2.1-19.8-2.9-30.9c-4.9-76,81.4-170.8,111.1-201.1c4.2,2.4,8.4,5,12.6,7.8c-8.6,12.1-22.5,31.3-44.2,60.3
			c-40.2,53.5-58.3,97.5-55.6,163.1c80.7-5.2,172.6-16.6,209.1-41c0.8,12.3,0.6,24.3-0.5,36c-21.3,3.8-112,19.3-207.6,27
			c0.2,2,0.3,4,0.5,6c5.7,56.5,75.1,120.3,112.7,151.1c5.8-4.5,10.5-8.4,13.7-11.3C430.3,418.3,551.6,278.8,474.6,134.2z
			 M361.1,239.1l-5.3-17l-16.2,0.1l-1.8,18.9l-12.2,1l9-59.4l14.7-0.8l24.3,55.2L361.1,239.1z M403.1,231.5l-18.9,2.6l-7.4-54.9
			l21.2-2.9l10.3,3.7l0.9,7L395,198.5l16.3,3.9l2.3,17.3L403.1,231.5z M454,222.7l-23.2-27.5l4.1,30.1l-7.6,1.6l-7.4-55l7-1.7
			l21.2,30.7l-4.6-34.2l6.6-1.5l10.6,56L454,222.7z"/>
		<path style="fill:#F17F3B;" d="M403.5,441c-0.8,0.6-1.6,1.2-2.5,1.9C401.9,442.3,402.7,441.7,403.5,441z"/>
		<path style="fill:#F17F3B;" d="M404,440.6c-0.2,0.1-0.3,0.3-0.5,0.4C403.7,440.9,403.8,440.8,404,440.6z"/>
		<path style="fill:#F17F3B;" d="M404.5,440.2L404.5,440.2c-0.2,0.1-0.4,0.3-0.5,0.4C404.2,440.5,404.4,440.4,404.5,440.2z"/>
	</g>
	<path style="fill:#1A4253;" d="M262.4,498.6c-0.7,0.1-1.4,0.1-2.2,0.2C261,498.7,261.7,498.6,262.4,498.6z"/>
	<path style="fill:#1A4253;" d="M388,452.1c-0.1,0.1-0.2,0.1-0.3,0.2C387.8,452.2,387.9,452.2,388,452.1z"/>
	<path style="fill:#1A4253;" d="M242.1,499.4c0,0,0.4,0,1.2,0C242.8,499.4,242.5,499.4,242.1,499.4L242.1,499.4z"/>
</g>
<circle style="fill:#F17F3B;" cx="250.6" cy="250.6" r="249.4"/>
<g id="Layer_1_1_">
	<path style="fill:none;" d="M1807.3,49.4c0.4-18.1,1.3-33.5,1.3-33.5s-10.5,3.1-22.3,6.6c0,6.7,0.1,18.2,0.2,32.2
		C1794.8,52.5,1802.2,50.7,1807.3,49.4z"/>
	<path style="fill:none;" d="M1807.1,63.2c-4.8,1-12.1,2.5-20.5,4.1c0.2,15.3,0.5,32.4,1,49.1c10.4-1.4,18.4-2.5,23.3-3.1
		c-0.9-5.9-1.7-10.8-2.3-14.3C1807.3,91.2,1806.9,77.4,1807.1,63.2z"/>
	<path style="fill:none;" d="M1790.5,175.4c13.4-0.9,24.7-1.7,29.3-2.1c-2.1-15.4-4.4-30.8-6.4-43.9c-6.1,0.4-15.1,1-25.4,1.7
		C1788.6,147.9,1789.4,163.5,1790.5,175.4z"/>
	<path style="fill:none;" d="M1793.7,196.6c2.7,7.5,3.8,18.5,4,30.5h28.6c-1.1-11.8-2.9-26.5-4.9-41.9c-6.6,0.4-17.1,1-29.7,1.6
		C1792.3,191.1,1793,194.5,1793.7,196.6z"/>
	<path style="fill:none;" d="M1804.7,388.9c0.1-3.2,0.5-7.4,1.1-12.2c-6.2-1.7-15.7-4.3-25.8-6.4c-1.7,9.7-3,17.7-3.5,22
		c-0.6,4.8-0.8,14.6-0.9,26c11.5,2.6,22.3,5,29.7,6.7C1804.8,411.4,1804.4,398,1804.7,388.9z"/>
	<path style="fill:none;" d="M1797.5,242.4c-0.6,17.4-2.5,34.8-3.8,45.8c-0.2,2-0.6,4.4-0.9,7c10.9,0.4,20.5,0.8,26.8,1.1
		c3.9-21.2,7.2-39.6,7.8-47.6c0.1-1.8,0.1-4.2,0-7L1797.5,242.4z"/>
	<path style="fill:none;" d="M1775.7,430.5c0.1,17,0.5,34.9,0.7,44.5c17,2,29.5,3.6,32.3,4c0,0-1.5-19.7-2.6-41.8
		C1799.4,435.7,1788.4,433.2,1775.7,430.5z"/>
	<path style="fill:none;" d="M1782,358.7c10.9,1.3,20.3,2.5,25.8,3.2c2.5-15.8,6-35.1,9.4-53.4l-26.6,0.5
		C1788.2,324,1784.9,342.6,1782,358.7z"/>
	<path style="fill:none;" d="M37.3,383.9c0,0-63.8-92-24.4-229s202.7-148.3,229-152s155.8-13.1,232.7,131.4s-44.3,284-56.3,294.7
		C384.5,459,208.1,594.1,37.3,383.9z"/>
	<polygon style="fill:#1A4253;" points="443.4,166.7 448.1,200.9 426.9,170.1 419.9,171.8 427.3,226.9 434.9,225.2 430.9,195.2 
		454,222.7 460.6,221.2 450,165.2 	"/>
	<path style="fill:#1A4253;" d="M334.5,182.8l-9,59.4l12.2-1l1.8-18.9l16.2-0.1l5.3,17l12.4-1.9L349.2,182L334.5,182.8z
		 M340.2,212.8l1.4-16.7h4.9l5.6,16.7H340.2z"/>
	<path style="fill:#1A4253;" d="M395.2,198.6l14.2-11.5l-0.9-7l-10.3-3.7l-21.2,2.9l7.4,54.9l18.9-2.6l10.6-11.7l-2.3-17.3
		L395.2,198.6z M391.1,184.8l8.8-1.2l0.5,3.4l-8.4,4.6L391.1,184.8z M396.6,226l-2.4-17.4l10.9,1.7l1.2,8.6L396.6,226z"/>
	<path style="fill:#1A4253;" d="M291.8,289.2c-0.2-2.1-0.3-4-0.5-6c95.7-7.7,186.3-23.2,207.6-27c1.1-11.7,1.3-23.7,0.5-36
		c-36.5,24.5-128.4,35.8-209.1,41c-2.8-65.6,15.3-109.5,55.6-163.1c21.8-28.9,35.7-48.1,44.2-60.3c-4.2-2.8-8.4-5.4-12.6-7.8
		c-29.7,30.3-116,125.1-111.1,201.1c0.7,11.1,1.7,21.4,2.9,30.9c-15.9,0.9-24.4,1.6-38.6,2.1c-1.2-22.9-1.2-44.7,0.4-63.6
		c7.3-83.3,40.9-167.3,54.6-198.7c-7.6-0.6-14.5-0.8-20.6-0.7C243,32.2,190.3,122.6,206,259.6c0.2,1.7,0.4,3.3,0.6,5
		c-8.1,0.2-22.4,0.4-29.2,0.5c2.6-26.9-0.4-51.8-3.4-68.6c-4.1-23.1-49.1-99.6-100.7-133C66.7,69,60.5,74.6,54.7,80.8
		c36.1,27.8,96.4,81.9,100.6,135.5c1.6,21.1,2.1,36.9,1.8,49.1c-10.5,0.1-11.8,0.2-16.7,0.2c-33.9,0-102.9-5-140-7.9
		c0.3,7,0.9,13.7,1.6,20.1c27.1,3.7,76.3,8.5,154,9.5c-2.4,20.1-18.9,43.6-25.4,57.1c-7.9,16.4-43.1,54.4-62,74.2
		c6.9,6.9,13.8,13.2,20.7,19c17-20.7,53-66.3,67.8-99.6c5.4-12.2,15.7-38.2,17.9-50.6c8.7,0,24.2,0,33.1-0.2
		c17.2,154.9,22.9,190.7,33.8,212.1c0.4,0,0.8,0,1.2,0c2.3,0,8-0.1,15.6-0.5c0.5,0,1-0.1,1.5-0.1c0.7-0.1,1.4-0.1,2.2-0.2
		c0.9-0.1,1.7-0.2,2.6-0.3c-1.9-8-26.5-113.9-33.5-211.6c15.4-0.6,24.2-1.5,39.7-2.6c9.4,58.9,34.6,80.9,53,105.7
		c14.2,19.2,42.1,46.5,60.8,64.2c0.9-0.6,1.8-1.2,2.6-1.7c0.1-0.1,0.2-0.1,0.3-0.2c6.3-4.2,11.8-8.2,16.5-11.9
		C366.9,409.5,297.5,345.7,291.8,289.2z"/>
</g>
</svg>
