<svg id="Layer_1" data-name="Layer 1" xmlns="http://www.w3.org/2000/svg" width="1840.61" height="499.37" viewBox="0 0 1840.61 499.37">
  <title>cart-2</title>
  <g id="Layer_1-2" data-name="Layer 1">
    <path d="M164.2,98.5l1.6,56.8L111.6,153l4.3,24.3,50.5.5,1.4,50.3-43-1.1,3.8,21.1,39.8.7,1.7,62.9L140.2,314l5.3,30-.1.1,331.4-18.5,22.3-194.7L500,106,97.9,75.7l3,16.6Zm65.5,208.9-39.1,3-1.8-61,40.9.7v57.3Zm0-77.6-41.5-1-1.5-50.6,43,.5Zm181,63.7-35.2,2.7-.7-43.6,38.1.7Zm3.2-59.2-39.4-1-.8-53.1,43.2.5Zm26.6-108.9,33.1,3.2-2.7,39.8L437,167Zm-4.7,55.4,34.3.4-3.6,54.3-35.2-.9Zm-6.2,72.7,35.5.6-2.4,35.4-36.4,2.8ZM420,123.4l-2.3,42.7-44.2-1.9-.7-45.4ZM312.5,113l43.3,4.2.2,46.3-44.4-1.9Zm-1.2,66.5,44.8.5.2,52.9-45.9-1.1ZM310,251.4l46.4.8.2,45.4-47.5,3.6ZM249.9,106.9l42.9,4.2v49.7l-43.6-1.9Zm-1,71.9,43.9.5v52l-44.6-1.1Zm-1.1,71.6,44.9.8v51.4L247,306.1ZM229.7,104.9v53.2l-43.6-1.9-1.6-55.7Z" transform="translate(0 -0.7)" style="fill: #e9ded1"/>
    <path d="M1775.9,57.4c.1-13.3.3-24.7.5-32-6.8,2-13.3,3.9-17.7,5.1a76.68,76.68,0,0,1-10,1.8c-.8,7.6-2.1,19.2-3.3,32a108.14,108.14,0,0,0,13.3-2.3C1764.4,60.4,1770.3,58.9,1775.9,57.4Z" transform="translate(0 -0.7)" style="fill: none"/>
    <path d="M1750.1,227.1h33.5c-1.3-11.1-2.8-25.2-4.2-39.7-10.4.5-21.6,1-32.7,1.5C1747.9,202,1749.1,215.5,1750.1,227.1Z" transform="translate(0 -0.7)" style="fill: none"/>
    <path d="M1753,256.7c.8,4.2.3,18.2-1,37l27.2.9c4.1-24.2,7-46,7-46s-.3-2.2-.7-5.9l-33.9.9C1752.2,250.2,1752.7,254.9,1753,256.7Z" transform="translate(0 -0.7)" style="fill: none"/>
    <path d="M1807.3,49.4c.4-18.1,1.3-33.5,1.3-33.5l-22.3,6.6c0,6.7.1,18.2.2,32.2C1794.8,52.5,1802.2,50.7,1807.3,49.4Z" transform="translate(0 -0.7)" style="fill: none"/>
    <path d="M1689.4,136.1h-26.7l-.5,40.7c9.3.6,18.8,1.2,27.8,1.7C1689.5,165.9,1689.4,151.3,1689.4,136.1Z" transform="translate(0 -0.7)" style="fill: none"/>
    <path d="M1690.1,78.2c-8.5.3-17.7.7-26.6,1.1l-.6,42.7c8.5.2,17.5.4,26.5.5C1689.6,107.2,1689.8,91.9,1690.1,78.2Z" transform="translate(0 -0.7)" style="fill: none"/>
    <path d="M1807.1,63.2c-4.8,1-12.1,2.5-20.5,4.1.2,15.3.5,32.4,1,49.1,10.4-1.4,18.4-2.5,23.3-3.1-.9-5.9-1.7-10.8-2.3-14.3C1807.3,91.2,1806.9,77.4,1807.1,63.2Z" transform="translate(0 -0.7)" style="fill: none"/>
    <path d="M1737.1,33.4c-9.8.6-21.4.8-33.4.8-.2,7.3-.5,19.2-.8,33.2,11.3-.5,22.2-1.1,31.6-1.9C1735.5,52.2,1736.5,40.5,1737.1,33.4Z" transform="translate(0 -0.7)" style="fill: none"/>
    <path d="M1731.1,122.3c.4-12.7,1.5-29.7,2.6-45.9-3.8.4-6.9.7-9.2.7-3.9,0-11.9.2-21.9.6-.3,14.3-.7,30-1,44.9C1711.9,122.6,1722,122.6,1731.1,122.3Z" transform="translate(0 -0.7)" style="fill: none"/>
    <path d="M1691.3,34c-9.3-.2-18.6-.4-27.2-.7l-.5,35.1c8.5-.1,17.6-.3,26.7-.6C1690.7,53.3,1691,41.3,1691.3,34Z" transform="translate(0 -0.7)" style="fill: none"/>
    <path d="M1648.8,404.9l.3-36c-11.6.5-21.1.9-26.7,1.2v35.6C1628.9,405.4,1638.3,405.1,1648.8,404.9Z" transform="translate(0 -0.7)" style="fill: none"/>
    <path d="M1650.9,176l.4-39.9h-28.9v37.8C1629.2,174.4,1639.5,175.2,1650.9,176Z" transform="translate(0 -0.7)" style="fill: none"/>
    <path d="M1650.4,227.1l.4-39.5c-10.4-.5-20.9-.8-28.4-1V227h28Z" transform="translate(0 -0.7)" style="fill: none"/>
    <path d="M1651.9,68.5l.3-35.7c-15.4-.6-27-1.3-29.9-1.4V68.7C1628.4,68.7,1639,68.7,1651.9,68.5Z" transform="translate(0 -0.7)" style="fill: none"/>
    <path d="M1651.4,121.6l.4-41.9c-11.8.5-22.4,1-29.4,1.3v39.6C1628.8,120.9,1639.1,121.3,1651.4,121.6Z" transform="translate(0 -0.7)" style="fill: none"/>
    <path d="M1790.5,175.4c13.4-.9,24.7-1.7,29.3-2.1-2.1-15.4-4.4-30.8-6.4-43.9-6.1.4-15.1,1-25.4,1.7C1788.6,147.9,1789.4,163.5,1790.5,175.4Z" transform="translate(0 -0.7)" style="fill: none"/>
    <path d="M1649.8,295l.5-48.6-27.9.8v48.9C1629.3,295.8,1639,295.4,1649.8,295Z" transform="translate(0 -0.7)" style="fill: none"/>
    <path d="M1642.9,463.4c1.4-.2,3.2-.2,5.3-.3l.4-41.7c-10.5.1-20,.1-26.2.1v44.8C1627.7,465.4,1634.6,464.3,1642.9,463.4Z" transform="translate(0 -0.7)" style="fill: none"/>
    <path d="M1793.7,196.6c2.7,7.5,3.8,18.5,4,30.5h28.6c-1.1-11.8-2.9-26.5-4.9-41.9-6.6.4-17.1,1-29.7,1.6A60.51,60.51,0,0,0,1793.7,196.6Z" transform="translate(0 -0.7)" style="fill: none"/>
    <path d="M1691.5,203.9c-.4-3.9-.8-8.5-1-13.6-4.6-.1-8.2-.2-10.3-.5-4.5-.6-11-1.2-18.2-1.6l-.5,38.9h32.3C1693.3,220.8,1692.6,213.4,1691.5,203.9Z" transform="translate(0 -0.7)" style="fill: none"/>
    <path d="M1649.2,357.1l.4-45.3-27.2.5V358C1628.1,357.8,1637.9,357.5,1649.2,357.1Z" transform="translate(0 -0.7)" style="fill: none"/>
    <path d="M1730.1,422.3a184.28,184.28,0,0,0-24.7-2.2v47c8.3.8,16.8,1.7,25.3,2.6C1729.5,461,1729.5,443.3,1730.1,422.3Z" transform="translate(0 -0.7)" style="fill: none"/>
    <path d="M1750.9,309.8c-1.1,14-2.5,29.5-4.2,45.1,6.2.5,12.7,1.2,19.1,1.9a53.52,53.52,0,0,1,1.8-7.8c3.1-9.1,6.3-24.1,9.2-39.7Z" transform="translate(0 -0.7)" style="fill: none"/>
    <path d="M1804.7,388.9c.1-3.2.5-7.4,1.1-12.2-6.2-1.7-15.7-4.3-25.8-6.4-1.7,9.7-3,17.7-3.5,22-.6,4.8-.8,14.6-.9,26,11.5,2.6,22.3,5,29.7,6.7C1804.8,411.4,1804.4,398,1804.7,388.9Z" transform="translate(0 -0.7)" style="fill: none"/>
    <path d="M1741.8,424.1c0,21.4,1.3,38.7,2,47.1,8.2.9,16.1,1.8,23.5,2.7-.5-6.8-1.9-24.9-2.9-45.7C1757,426.8,1749.3,425.4,1741.8,424.1Z" transform="translate(0 -0.7)" style="fill: none"/>
    <path d="M1753.4,366.1c-2-.1-4.7-.2-7.9-.2-.4,3.4-.8,6.9-1.1,10.3-1.4,11.9-2.1,23.6-2.4,34.7,6.8,1.5,14.4,3.1,22,4.8-.5-17.1-.6-34.7.5-48.3A94.91,94.91,0,0,0,1753.4,366.1Z" transform="translate(0 -0.7)" style="fill: none"/>
    <path d="M1778.4,176.3c-.8-9.5-1.5-18.8-1.9-27.1-.2-4.9-.4-10.7-.6-17.1-11.4.8-23.5,1.6-34.6,2.2.1.7.1,1.3.2,1.9,1.1,7,2.6,23.6,4.3,42.3C1755.8,177.8,1767.4,177,1778.4,176.3Z" transform="translate(0 -0.7)" style="fill: none"/>
    <path d="M1797.5,242.4c-.6,17.4-2.5,34.8-3.8,45.8-.2,2-.6,4.4-.9,7,10.9.4,20.5.8,26.8,1.1,3.9-21.2,7.2-39.6,7.8-47.6.1-1.8.1-4.2,0-7Z" transform="translate(0 -0.7)" style="fill: none"/>
    <path d="M1689.1,404.4c0-12.1,0-24.7.1-37.2-10.1.4-20.2.8-29.6,1.2l-.5,36.3C1669.2,404.5,1679.7,404.4,1689.1,404.4Z" transform="translate(0 -0.7)" style="fill: none"/>
    <path d="M1775.7,430.5c.1,17,.5,34.9.7,44.5,17,2,29.5,3.6,32.3,4,0,0-1.5-19.7-2.6-41.8C1799.4,435.7,1788.4,433.2,1775.7,430.5Z" transform="translate(0 -0.7)" style="fill: none"/>
    <path d="M1782,358.7c10.9,1.3,20.3,2.5,25.8,3.2,2.5-15.8,6-35.1,9.4-53.4l-26.6.5C1788.2,324,1784.9,342.6,1782,358.7Z" transform="translate(0 -0.7)" style="fill: none"/>
    <path d="M1738,227.1c-.2-2.7-.3-4.2-.3-4.2s-1.4-15.2-3-33.5c-12.5.5-24.3.8-33.9.9.9,10.1,3,22.9,4.6,36.8Z" transform="translate(0 -0.7)" style="fill: none"/>
    <path d="M1661.3,246.1l-.6,48.5c10.1-.4,20.7-.7,30.5-1,.1-1.8.3-3.4.4-4.9,2-21.5,3.2-31.7,3.2-43.5Z" transform="translate(0 -0.7)" style="fill: none"/>
    <path d="M1705.7,354.4c3.5-.2,6.4-.5,8.5-.7a129.59,129.59,0,0,1,19.3.3c1.1-17,2.3-32.4,3.3-43.8l-30.5.6C1706,323.9,1705.8,338.9,1705.7,354.4Z" transform="translate(0 -0.7)" style="fill: none"/>
    <path d="M1705.4,404.8a107.32,107.32,0,0,1,13.1,1.1c2.8.5,7,1.4,12,2.4.5-13.8,1.3-28.3,2.1-42.4-7.9.1-17.2.4-27.1.7C1705.5,379.6,1705.5,392.5,1705.4,404.8Z" transform="translate(0 -0.7)" style="fill: none"/>
    <path d="M1775.7,118.1c-.2-15.5-.1-32.8,0-48.6-10.6,2-21.9,4-31.5,5.5-1.5,16.9-2.9,34.5-3.2,47,8-.4,14.9-.9,19.9-1.7C1766.2,119.5,1771.1,118.8,1775.7,118.1Z" transform="translate(0 -0.7)" style="fill: none"/>
    <path d="M1724.5,179.6c2.5-.1,5.7-.3,9.4-.5-1.3-16.2-2.5-33-2.9-43v-1.3c-13.3.8-23.8,1.3-27.6,1.3h-2c-.4,19-.7,35.2-.8,43C1710.9,179.6,1719.6,179.8,1724.5,179.6Z" transform="translate(0 -0.7)" style="fill: none"/>
    <path d="M1659,421.4l-.6,42c8.4.4,19.1,1.2,30.9,2.2-.1-9.1-.2-25.5-.2-44.9C1679.9,421.1,1669.3,421.2,1659,421.4Z" transform="translate(0 -0.7)" style="fill: none"/>
    <path d="M1707.2,244.9a200,200,0,0,1,.2,26.8c-.3,4.7-.6,12.3-.9,21.6,6-.1,11.4-.2,15.7-.2,4.5,0,10,.1,16.1.2a415.58,415.58,0,0,0,.6-49.4Z" transform="translate(0 -0.7)" style="fill: none"/>
    <path d="M1659.8,356.7c10-.4,20.3-.8,29.5-1.3.2-16.2.5-31.6.9-44.3l-29.9.6Z" transform="translate(0 -0.7)" style="fill: none"/>
    <path d="M1821.9,66.1c4-44.9,5.4-57.6,5.4-57.6s-3.4-7.2-10.9-7.2-61.7,19.1-85.4,18.6-108.6-4.1-108.6-4.1h0V31.3c2.9.1,14.5.8,29.9,1.4l-.3,35.7c-12.9.1-23.6.1-29.6.1V81c7-.3,17.6-.8,29.4-1.3l-.4,41.9c-12.3-.4-22.6-.7-29-1v15.5h28.9l-.4,39.9c-11.5-.8-21.7-1.6-28.5-2.1v12.7c7.5.2,18,.5,28.4,1l-.4,39.5h-28.1v20.1l27.9-.8-.5,48.6c-10.8.4-20.5.8-27.4,1.1v16.3l27.2-.5-.4,45.3c-11.3.4-21.1.8-26.8.9v12c5.6-.3,15.1-.7,26.7-1.2l-.3,36c-10.4.2-19.8.5-26.4.7v16c6.2,0,15.7,0,26.2-.1l-.4,41.7a38.94,38.94,0,0,0-5.3.3c-8.3.9-15.2,2-20.5,2.9v13.9c18.6-1.4,50.8-3.3,67.1-1.2,23.7,3,90.4,12.1,107.9,17.2s22.2,3.5,22.2,3.5l7.7-13.4s-10-84.9-5.3-121.7,18.7-100.3,18.7-100.3-.4-17.8,0-28.8S1817.8,111,1821.9,66.1Zm4.3,161h-28.6c-.2-12-1.3-23-4-30.5a58.21,58.21,0,0,1-2-9.8c12.5-.6,23.1-1.2,29.7-1.6C1823.4,200.6,1825.2,215.3,1826.2,227.1Zm-6.4-53.7c-4.6.3-15.9,1.1-29.3,2.1-1.1-12-1.9-27.5-2.4-44.2,10.3-.7,19.2-1.3,25.4-1.7C1815.4,142.6,1817.7,158,1819.8,173.4Zm-32.2-57c-.5-16.7-.8-33.8-1-49.1,8.4-1.6,15.7-3.1,20.5-4.1-.1,14.1.2,27.9,1.5,35.8.6,3.5,1.4,8.4,2.3,14.3C1806,114,1797.9,115,1787.6,116.4Zm21-100.5s-.9,15.4-1.3,33.5c-5.1,1.3-12.4,3.1-20.8,5.3-.1-14-.2-25.4-.2-32.2Zm-22.4,232.7s-2.9,21.8-7,46l-27.2-.9c1.3-18.8,1.8-32.8,1-37-.3-1.8-.8-6.5-1.5-13.1l33.9-.9C1786,246.5,1786.2,248.6,1786.2,248.6Zm-2.6-21.5h-33.5c-1-11.5-2.2-25-3.3-38.2,11-.5,22.2-1,32.7-1.5C1780.8,201.8,1782.4,216,1783.6,227.1Zm-35-194.7a76.68,76.68,0,0,0,10-1.8c4.4-1.2,10.9-3.1,17.7-5.1-.1,7.3-.3,18.7-.5,32-5.6,1.5-11.4,3-17.3,4.6a91.89,91.89,0,0,1-13.3,2.3C1746.5,51.6,1747.8,40,1748.6,32.4Zm-44.9,1.8c12,0,23.6-.2,33.4-.8-.6,7.1-1.6,18.8-2.6,32-9.4.8-20.3,1.4-31.6,1.9C1703.2,53.3,1703.5,41.5,1703.7,34.2Zm-1,43.5c9.9-.3,17.9-.6,21.9-.6,2.2,0,5.4-.3,9.2-.7-1.2,16.2-2.2,33.2-2.6,45.9-9.1.2-19.2.3-29.5.2C1702,107.7,1702.3,92,1702.7,77.7Zm-38.6-44.4c8.6.3,17.9.6,27.2.7-.2,7.3-.6,19.2-.9,33.8-9.1.3-18.2.5-26.7.6Zm-.6,45.9c8.9-.4,18.1-.7,26.6-1.1-.3,13.7-.5,29-.6,44.3-9.1-.1-18.1-.3-26.5-.5Zm-.8,56.9h26.7c0,15.2.1,29.8.6,42.5-8.9-.5-18.5-1.1-27.8-1.7Zm-.7,52.1c7.2.4,13.7,1,18.2,1.6a81.56,81.56,0,0,0,10.3.5c.3,5.1.6,9.7,1,13.6,1,9.5,1.8,16.9,2.3,23.2h-32.3Zm-2.3,180.2c9.4-.4,19.5-.8,29.6-1.2-.1,12.5-.1,25.2-.1,37.2-9.4-.1-19.8,0-29.9.2Zm-1.3,95,.6-42c10.3-.1,20.9-.3,30.1-.6,0,19.4.2,35.7.2,44.9C1677.5,464.6,1666.8,463.8,1658.4,463.4Zm30.9-108.1c-9.2.5-19.6.9-29.5,1.3l.6-45.1,29.9-.6C1689.8,323.7,1689.5,339.1,1689.3,355.3Zm2.2-66.6c-.1,1.5-.3,3.2-.4,4.9-9.8.3-20.4.6-30.5,1l.6-48.5,33.4-.9C1694.8,257,1693.5,267.2,1691.5,288.7Zm9.8-152.6h2c3.8,0,14.3-.5,27.6-1.3v1.3c.4,10,1.6,26.9,2.9,43-3.7.2-6.9.4-9.4.5-5,.2-13.7,0-24-.5C1700.6,171.3,1700.9,155.1,1701.3,136.1Zm33.4,53.2c1.5,18.3,3,33.5,3,33.5s.1,1.5.3,4.2h-32.5c-1.7-13.8-3.8-26.7-4.6-36.8C1710.4,190.2,1722.2,189.8,1734.7,189.3Zm-29.3,277.9v-47a184.28,184.28,0,0,1,24.7,2.2c-.6,21-.6,38.8.6,47.5C1722.2,468.9,1713.7,468,1705.4,467.2Zm25.2-58.9c-5.1-1.1-9.2-1.9-12-2.4a107.32,107.32,0,0,0-13.1-1.1c0-12.2.1-25.2.2-38.1,9.8-.3,19.1-.6,27.1-.7C1731.8,380,1731.1,394.6,1730.6,408.3Zm2.8-54.4c-8.3-.5-15.2-.7-19.3-.3-2.1.2-5,.5-8.5.7.1-15.5.3-30.5.5-43.7l30.5-.6C1735.7,321.5,1734.5,337,1733.4,353.9Zm4.9-60.5c-6.1-.1-11.6-.2-16.1-.2-4.3,0-9.7,0-15.7.2.2-9.4.5-16.9.9-21.6a200,200,0,0,0-.2-26.8l31.7-.9A414.09,414.09,0,0,1,1738.3,293.4Zm6-218.4c9.6-1.5,20.8-3.5,31.5-5.5-.1,15.8-.2,33.1,0,48.6-4.6.7-9.5,1.4-14.7,2.2a198.22,198.22,0,0,1-19.9,1.7C1741.4,109.4,1742.7,91.9,1744.3,75Zm-3,59.2c11.1-.7,23.2-1.5,34.6-2.2.1,6.4.3,12.2.6,17.1.4,8.3,1.1,17.6,1.9,27.1-11.1.8-22.6,1.5-32.6,2.2-1.7-18.7-3.3-35.3-4.3-42.3A15.41,15.41,0,0,0,1741.3,134.2ZM1764,415.6c-7.6-1.7-15.2-3.4-22-4.8.3-11,1-22.8,2.4-34.7.4-3.4.8-6.8,1.1-10.3,3.2,0,5.9.1,7.9.2,3.4.2,7.2.6,11.1,1.2C1763.4,380.9,1763.5,398.5,1764,415.6Zm-20.2,55.7c-.8-8.4-2.1-25.8-2-47.1,7.5,1.2,15.2,2.7,22.7,4.1.9,20.8,2.3,38.9,2.9,45.7C1760,473.1,1752,472.2,1743.8,471.3Zm22-114.5c-6.4-.7-12.9-1.3-19.1-1.9,1.6-15.6,3-31.1,4.2-45.1l25.9-.5c-2.9,15.6-6.1,30.6-9.2,39.7A45.12,45.12,0,0,0,1765.8,356.8Zm10.7,35.4c.5-4.3,1.8-12.3,3.5-22,10,2.2,19.6,4.7,25.8,6.4-.6,4.8-1,9-1.1,12.2-.3,9.2.1,22.5.7,36.1l-29.7-6.7C1775.7,406.8,1775.9,397,1776.5,392.2Zm-.2,82.8c-.2-9.6-.6-27.5-.7-44.5,12.7,2.6,23.8,5.1,30.3,6.7,1.2,22.1,2.6,41.8,2.6,41.8C1805.8,478.7,1793.4,477.1,1776.3,475Zm31.5-113c-5.5-.7-14.9-2-25.8-3.2,2.8-16.1,6.1-34.7,8.6-49.6l26.6-.5C1813.8,326.9,1810.3,346.1,1807.8,362Zm19.5-113.4c-.5,7.9-3.8,26.3-7.8,47.6-6.3-.3-15.8-.7-26.8-1.1.4-2.6.7-5,.9-7,1.3-11,3.1-28.4,3.8-45.8l29.8-.8A58.59,58.59,0,0,1,1827.3,248.6Z" transform="translate(0 -0.7)" style="fill: #e9ded1"/>
    <polygon points="1608.4 15.2 1569.8 25.2 1569.8 48.8 1602.7 40 1602.7 458.6 1570.1 444.4 1570.1 466.2 1608.4 480.6 1622.4 479.5 1622.4 479.5 1622.4 465.6 1622.4 420.9 1622.4 404.9 1622.4 369.3 1622.4 357.3 1622.4 311.6 1622.4 295.4 1622.4 246.4 1622.4 226.4 1622.4 185.9 1622.4 173.2 1622.4 135.4 1622.4 119.9 1622.4 80.3 1622.4 68 1622.4 30.7 1622.4 15.2 1622.4 15.2 1608.4 15.2" style="fill: #1a4253"/>
  </g>
  <g id="Layer_2" data-name="Layer 2">
    <path d="M134.2,422.9c-15.4,2.5-39.3,19.4-30.5,48.6s50.9,40.2,67.6,9.7c11.8-21.4,5.4-41.1-8.7-50.2C162.6,431,148,420.6,134.2,422.9Z" transform="translate(0 -0.7)" style="fill: #59284f"/>
    <path d="M480.1,446.7c-5.4-15.7-27.2-37.9-55.6-23.4s-32,60.8,2.5,73c24.2,8.5,43.3-1.8,50.1-18.2C477,478,485,460.8,480.1,446.7Z" transform="translate(0 -0.7)" style="fill: #59284f"/>
  </g>
  <g id="Layer_3" data-name="Layer 3">
    <polygon points="96.1 381.3 145.5 343.6 145.6 343.6 140.3 313.5 128.6 247.6 124.8 226.5 116 176.7 111.6 152.4 100.8 91.7 97.9 75 87.1 14.2 0 0 0 40.8 58.6 49.2 106.7 332.7 43.3 375.7 37.7 418.3 484.4 412.6 484.4 372.3 96.1 381.3" style="fill: #1a4253"/>
  </g>
</svg>
