<?xml version="1.0" encoding="utf-8"?>
<!-- Generator: Adobe Illustrator 24.0.3, SVG Export Plug-In . SVG Version: 6.00 Build 0)  -->
<svg version="1.1" id="Layer_1" xmlns="http://www.w3.org/2000/svg" xmlns:xlink="http://www.w3.org/1999/xlink" x="0px" y="0px"
	 viewBox="0 0 500 500" style="enable-background:new 0 0 500 500;" xml:space="preserve">
<g id="Layer_1_1_">
	<path style="fill:#E9DED1;" d="M164.2,98.5l1.6,56.8l-54.2-2.3l4.3,24.3l50.5,0.5l1.4,50.3l-43-1.1l3.8,21.1l39.8,0.7l1.7,62.9
		l-29.9,2.3l5.3,30l-0.1,0.1l331.4-18.5l22.3-194.7L500,106L97.9,75.7l3,16.6L164.2,98.5z M229.7,307.4l-39.1,3l-1.8-61l40.9,0.7
		L229.7,307.4L229.7,307.4z M229.7,229.8l-41.5-1l-1.5-50.6l43,0.5V229.8z M410.7,293.5l-35.2,2.7l-0.7-43.6l38.1,0.7L410.7,293.5z
		 M413.9,234.3l-39.4-1l-0.8-53.1l43.2,0.5L413.9,234.3z M440.5,125.4l33.1,3.2l-2.7,39.8L437,167L440.5,125.4z M435.8,180.8
		l34.3,0.4l-3.6,54.3l-35.2-0.9L435.8,180.8z M429.6,253.5l35.5,0.6l-2.4,35.4l-36.4,2.8L429.6,253.5z M420,123.4l-2.3,42.7
		l-44.2-1.9l-0.7-45.4L420,123.4z M312.5,113l43.3,4.2l0.2,46.3l-44.4-1.9L312.5,113z M311.3,179.5l44.8,0.5l0.2,52.9l-45.9-1.1
		L311.3,179.5z M310,251.4l46.4,0.8l0.2,45.4l-47.5,3.6L310,251.4z M249.9,106.9l42.9,4.2v49.7l-43.6-1.9L249.9,106.9z M248.9,178.8
		l43.9,0.5v52l-44.6-1.1L248.9,178.8z M247.8,250.4l44.9,0.8v51.4l-45.7,3.5L247.8,250.4z M229.7,104.9v53.2l-43.6-1.9l-1.6-55.7
		L229.7,104.9z"/>
	<path style="fill:none;" d="M1775.9,57.4c0.1-13.3,0.3-24.7,0.5-32c-6.8,2-13.3,3.9-17.7,5.1c-2.6,0.7-6,1.3-10,1.8
		c-0.8,7.6-2.1,19.2-3.3,32c5.4-0.7,10-1.4,13.3-2.3C1764.4,60.4,1770.3,58.9,1775.9,57.4z"/>
	<path style="fill:none;" d="M1750.1,227.1h33.5c-1.3-11.1-2.8-25.2-4.2-39.7c-10.4,0.5-21.6,1-32.7,1.5
		C1747.9,202,1749.1,215.5,1750.1,227.1z"/>
	<path style="fill:none;" d="M1753,256.7c0.8,4.2,0.3,18.2-1,37c8.8,0.3,18.2,0.6,27.2,0.9c4.1-24.2,7-46,7-46s-0.3-2.2-0.7-5.9
		l-33.9,0.9C1752.2,250.2,1752.7,254.9,1753,256.7z"/>
	<path style="fill:none;" d="M1807.3,49.4c0.4-18.1,1.3-33.5,1.3-33.5s-10.5,3.1-22.3,6.6c0,6.7,0.1,18.2,0.2,32.2
		C1794.8,52.5,1802.2,50.7,1807.3,49.4z"/>
	<path style="fill:none;" d="M1689.4,136.1c-7.6,0-17,0-26.7,0l-0.5,40.7c9.3,0.6,18.8,1.2,27.8,1.7
		C1689.5,165.9,1689.4,151.3,1689.4,136.1z"/>
	<path style="fill:none;" d="M1690.1,78.2c-8.5,0.3-17.7,0.7-26.6,1.1l-0.6,42.7c8.5,0.2,17.5,0.4,26.5,0.5
		C1689.6,107.2,1689.8,91.9,1690.1,78.2z"/>
	<path style="fill:none;" d="M1807.1,63.2c-4.8,1-12.1,2.5-20.5,4.1c0.2,15.3,0.5,32.4,1,49.1c10.4-1.4,18.4-2.5,23.3-3.1
		c-0.9-5.9-1.7-10.8-2.3-14.3C1807.3,91.2,1806.9,77.4,1807.1,63.2z"/>
	<path style="fill:none;" d="M1737.1,33.4c-9.8,0.6-21.4,0.8-33.4,0.8c-0.2,7.3-0.5,19.2-0.8,33.2c11.3-0.5,22.2-1.1,31.6-1.9
		C1735.5,52.2,1736.5,40.5,1737.1,33.4z"/>
	<path style="fill:none;" d="M1731.1,122.3c0.4-12.7,1.5-29.7,2.6-45.9c-3.8,0.4-6.9,0.7-9.2,0.7c-3.9,0-11.9,0.2-21.9,0.6
		c-0.3,14.3-0.7,30-1,44.9C1711.9,122.6,1722,122.6,1731.1,122.3z"/>
	<path style="fill:none;" d="M1691.3,34c-9.3-0.2-18.6-0.4-27.2-0.7l-0.5,35.1c8.5-0.1,17.6-0.3,26.7-0.6
		C1690.7,53.3,1691,41.3,1691.3,34z"/>
	<path style="fill:none;" d="M1648.8,404.9l0.3-36c-11.6,0.5-21.1,0.9-26.7,1.2v35.6C1628.9,405.4,1638.3,405.1,1648.8,404.9z"/>
	<path style="fill:none;" d="M1650.9,176l0.4-39.9c-11.3,0-21.8,0-28.9,0v37.8C1629.2,174.4,1639.5,175.2,1650.9,176z"/>
	<path style="fill:none;" d="M1650.4,227.1l0.4-39.5c-10.4-0.5-20.9-0.8-28.4-1V227h28V227.1z"/>
	<path style="fill:none;" d="M1651.9,68.5l0.3-35.7c-15.4-0.6-27-1.3-29.9-1.4v37.3C1628.4,68.7,1639,68.7,1651.9,68.5z"/>
	<path style="fill:none;" d="M1651.4,121.6l0.4-41.9c-11.8,0.5-22.4,1-29.4,1.3v39.6C1628.8,120.9,1639.1,121.3,1651.4,121.6z"/>
	<path style="fill:none;" d="M1790.5,175.4c13.4-0.9,24.7-1.7,29.3-2.1c-2.1-15.4-4.4-30.8-6.4-43.9c-6.1,0.4-15.1,1-25.4,1.7
		C1788.6,147.9,1789.4,163.5,1790.5,175.4z"/>
	<path style="fill:none;" d="M1649.8,295l0.5-48.6l-27.9,0.8v48.9C1629.3,295.8,1639,295.4,1649.8,295z"/>
	<path style="fill:none;" d="M1642.9,463.4c1.4-0.2,3.2-0.2,5.3-0.3l0.4-41.7c-10.5,0.1-20,0.1-26.2,0.1v44.8
		C1627.7,465.4,1634.6,464.3,1642.9,463.4z"/>
	<path style="fill:none;" d="M1793.7,196.6c2.7,7.5,3.8,18.5,4,30.5h28.6c-1.1-11.8-2.9-26.5-4.9-41.9c-6.6,0.4-17.1,1-29.7,1.6
		C1792.3,191.1,1793,194.5,1793.7,196.6z"/>
	<path style="fill:none;" d="M1691.5,203.9c-0.4-3.9-0.8-8.5-1-13.6c-4.6-0.1-8.2-0.2-10.3-0.5c-4.5-0.6-11-1.2-18.2-1.6l-0.5,38.9
		h32.3C1693.3,220.8,1692.6,213.4,1691.5,203.9z"/>
	<path style="fill:none;" d="M1649.2,357.1l0.4-45.3l-27.2,0.5V358C1628.1,357.8,1637.9,357.5,1649.2,357.1z"/>
	<path style="fill:none;" d="M1730.1,422.3c-9.7-1.4-18.3-2.2-24.7-2.2c0,21,0,38.2,0,47c8.3,0.8,16.8,1.7,25.3,2.6
		C1729.5,461,1729.5,443.3,1730.1,422.3z"/>
	<path style="fill:none;" d="M1750.9,309.8c-1.1,14-2.5,29.5-4.2,45.1c6.2,0.5,12.7,1.2,19.1,1.9c0.5-3,1.1-5.7,1.8-7.8
		c3.1-9.1,6.3-24.1,9.2-39.7L1750.9,309.8z"/>
	<path style="fill:none;" d="M1804.7,388.9c0.1-3.2,0.5-7.4,1.1-12.2c-6.2-1.7-15.7-4.3-25.8-6.4c-1.7,9.7-3,17.7-3.5,22
		c-0.6,4.8-0.8,14.6-0.9,26c11.5,2.6,22.3,5,29.7,6.7C1804.8,411.4,1804.4,398,1804.7,388.9z"/>
	<path style="fill:none;" d="M1741.8,424.1c0,21.4,1.3,38.7,2,47.1c8.2,0.9,16.1,1.8,23.5,2.7c-0.5-6.8-1.9-24.9-2.9-45.7
		C1757,426.8,1749.3,425.4,1741.8,424.1z"/>
	<path style="fill:none;" d="M1753.4,366.1c-2-0.1-4.7-0.2-7.9-0.2c-0.4,3.4-0.8,6.9-1.1,10.3c-1.4,11.9-2.1,23.6-2.4,34.7
		c6.8,1.5,14.4,3.1,22,4.8c-0.5-17.1-0.6-34.7,0.5-48.3C1760.6,366.7,1756.8,366.3,1753.4,366.1z"/>
	<path style="fill:none;" d="M1778.4,176.3c-0.8-9.5-1.5-18.8-1.9-27.1c-0.2-4.9-0.4-10.7-0.6-17.1c-11.4,0.8-23.5,1.6-34.6,2.2
		c0.1,0.7,0.1,1.3,0.2,1.9c1.1,7,2.6,23.6,4.3,42.3C1755.8,177.8,1767.4,177,1778.4,176.3z"/>
	<path style="fill:none;" d="M1797.5,242.4c-0.6,17.4-2.5,34.8-3.8,45.8c-0.2,2-0.6,4.4-0.9,7c10.9,0.4,20.5,0.8,26.8,1.1
		c3.9-21.2,7.2-39.6,7.8-47.6c0.1-1.8,0.1-4.2,0-7L1797.5,242.4z"/>
	<path style="fill:none;" d="M1689.1,404.4c0-12.1,0-24.7,0.1-37.2c-10.1,0.4-20.2,0.8-29.6,1.2l-0.5,36.3
		C1669.2,404.5,1679.7,404.4,1689.1,404.4z"/>
	<path style="fill:none;" d="M1775.7,430.5c0.1,17,0.5,34.9,0.7,44.5c17,2,29.5,3.6,32.3,4c0,0-1.5-19.7-2.6-41.8
		C1799.4,435.7,1788.4,433.2,1775.7,430.5z"/>
	<path style="fill:none;" d="M1782,358.7c10.9,1.3,20.3,2.5,25.8,3.2c2.5-15.8,6-35.1,9.4-53.4l-26.6,0.5
		C1788.2,324,1784.9,342.6,1782,358.7z"/>
	<path style="fill:none;" d="M1738,227.1c-0.2-2.7-0.3-4.2-0.3-4.2s-1.4-15.2-3-33.5c-12.5,0.5-24.3,0.8-33.9,0.9
		c0.9,10.1,3,22.9,4.6,36.8H1738z"/>
	<path style="fill:none;" d="M1661.3,246.1l-0.6,48.5c10.1-0.4,20.7-0.7,30.5-1c0.1-1.8,0.3-3.4,0.4-4.9c2-21.5,3.2-31.7,3.2-43.5
		L1661.3,246.1z"/>
	<path style="fill:none;" d="M1705.7,354.4c3.5-0.2,6.4-0.5,8.5-0.7c4-0.4,10.9-0.3,19.3,0.3c1.1-17,2.3-32.4,3.3-43.8l-30.5,0.6
		C1706,323.9,1705.8,338.9,1705.7,354.4z"/>
	<path style="fill:none;" d="M1705.4,404.8c5.6,0.2,10.2,0.6,13.1,1.1c2.8,0.5,7,1.4,12,2.4c0.5-13.8,1.3-28.3,2.1-42.4
		c-7.9,0.1-17.2,0.4-27.1,0.7C1705.5,379.6,1705.5,392.5,1705.4,404.8z"/>
	<path style="fill:none;" d="M1775.7,118.1c-0.2-15.5-0.1-32.8,0-48.6c-10.6,2-21.9,4-31.5,5.5c-1.5,16.9-2.9,34.5-3.2,47
		c8-0.4,14.9-0.9,19.9-1.7C1766.2,119.5,1771.1,118.8,1775.7,118.1z"/>
	<path style="fill:none;" d="M1724.5,179.6c2.5-0.1,5.7-0.3,9.4-0.5c-1.3-16.2-2.5-33-2.9-43c0-0.4,0-0.8,0-1.3
		c-13.3,0.8-23.8,1.3-27.6,1.3c-0.6,0-1.3,0-2,0c-0.4,19-0.7,35.2-0.8,43C1710.9,179.6,1719.6,179.8,1724.5,179.6z"/>
	<path style="fill:none;" d="M1659,421.4l-0.6,42c8.4,0.4,19.1,1.2,30.9,2.2c-0.1-9.1-0.2-25.5-0.2-44.9
		C1679.9,421.1,1669.3,421.2,1659,421.4z"/>
	<path style="fill:none;" d="M1707.2,244.9c0.6,9,0.8,18,0.2,26.8c-0.3,4.7-0.6,12.3-0.9,21.6c6-0.1,11.4-0.2,15.7-0.2
		c4.5,0,10,0.1,16.1,0.2c1.4-17.5,1.2-35.8,0.6-49.4L1707.2,244.9z"/>
	<path style="fill:none;" d="M1659.8,356.7c10-0.4,20.3-0.8,29.5-1.3c0.2-16.2,0.5-31.6,0.9-44.3l-29.9,0.6L1659.8,356.7z"/>
	<path style="fill:#E9DED1;" d="M1821.9,66.1c4-44.9,5.4-57.6,5.4-57.6s-3.4-7.2-10.9-7.2s-61.7,19.1-85.4,18.6
		c-23.7-0.5-108.6-4.1-108.6-4.1l0,0v15.5c2.9,0.1,14.5,0.8,29.9,1.4l-0.3,35.7c-12.9,0.1-23.6,0.1-29.6,0.1V81
		c7-0.3,17.6-0.8,29.4-1.3l-0.4,41.9c-12.3-0.4-22.6-0.7-29-1v15.5c7.1,0,17.6,0,28.9,0l-0.4,39.9c-11.5-0.8-21.7-1.6-28.5-2.1v12.7
		c7.5,0.2,18,0.5,28.4,1l-0.4,39.5h-28.1v20.1l27.9-0.8l-0.5,48.6c-10.8,0.4-20.5,0.8-27.4,1.1v16.3l27.2-0.5l-0.4,45.3
		c-11.3,0.4-21.1,0.8-26.8,0.9v12c5.6-0.3,15.1-0.7,26.7-1.2l-0.3,36c-10.4,0.2-19.8,0.5-26.4,0.7v16c6.2,0,15.7,0,26.2-0.1
		l-0.4,41.7c-2.1,0-3.9,0.1-5.3,0.3c-8.3,0.9-15.2,2-20.5,2.9v13.9c18.6-1.4,50.8-3.3,67.1-1.2c23.7,3,90.4,12.1,107.9,17.2
		c17.5,5.2,22.2,3.5,22.2,3.5l7.7-13.4c0,0-10-84.9-5.3-121.7s18.7-100.3,18.7-100.3s-0.4-17.8,0-28.8
		C1841.1,224.5,1817.8,111,1821.9,66.1z M1826.2,227.1h-28.6c-0.2-12-1.3-23-4-30.5c-0.7-2.1-1.4-5.4-2-9.8
		c12.5-0.6,23.1-1.2,29.7-1.6C1823.4,200.6,1825.2,215.3,1826.2,227.1z M1819.8,173.4c-4.6,0.3-15.9,1.1-29.3,2.1
		c-1.1-12-1.9-27.5-2.4-44.2c10.3-0.7,19.2-1.3,25.4-1.7C1815.4,142.6,1817.7,158,1819.8,173.4z M1787.6,116.4
		c-0.5-16.7-0.8-33.8-1-49.1c8.4-1.6,15.7-3.1,20.5-4.1c-0.1,14.1,0.2,27.9,1.5,35.8c0.6,3.5,1.4,8.4,2.3,14.3
		C1806,114,1797.9,115,1787.6,116.4z M1808.6,15.9c0,0-0.9,15.4-1.3,33.5c-5.1,1.3-12.4,3.1-20.8,5.3c-0.1-14-0.2-25.4-0.2-32.2
		C1798.1,19,1808.6,15.9,1808.6,15.9z M1786.2,248.6c0,0-2.9,21.8-7,46c-9-0.3-18.4-0.6-27.2-0.9c1.3-18.8,1.8-32.8,1-37
		c-0.3-1.8-0.8-6.5-1.5-13.1l33.9-0.9C1786,246.5,1786.2,248.6,1786.2,248.6z M1783.6,227.1h-33.5c-1-11.5-2.2-25-3.3-38.2
		c11-0.5,22.2-1,32.7-1.5C1780.8,201.8,1782.4,216,1783.6,227.1z M1748.6,32.4c4-0.5,7.4-1.1,10-1.8c4.4-1.2,10.9-3.1,17.7-5.1
		c-0.1,7.3-0.3,18.7-0.5,32c-5.6,1.5-11.4,3-17.3,4.6c-3.3,0.9-7.9,1.7-13.3,2.3C1746.5,51.6,1747.8,40,1748.6,32.4z M1703.7,34.2
		c12,0,23.6-0.2,33.4-0.8c-0.6,7.1-1.6,18.8-2.6,32c-9.4,0.8-20.3,1.4-31.6,1.9C1703.2,53.3,1703.5,41.5,1703.7,34.2z M1702.7,77.7
		c9.9-0.3,17.9-0.6,21.9-0.6c2.2,0,5.4-0.3,9.2-0.7c-1.2,16.2-2.2,33.2-2.6,45.9c-9.1,0.2-19.2,0.3-29.5,0.2
		C1702,107.7,1702.3,92,1702.7,77.7z M1664.1,33.3c8.6,0.3,17.9,0.6,27.2,0.7c-0.2,7.3-0.6,19.2-0.9,33.8
		c-9.1,0.3-18.2,0.5-26.7,0.6L1664.1,33.3z M1663.5,79.2c8.9-0.4,18.1-0.7,26.6-1.1c-0.3,13.7-0.5,29-0.6,44.3
		c-9.1-0.1-18.1-0.3-26.5-0.5L1663.5,79.2z M1662.7,136.1c9.7,0,19.1,0,26.7,0c0,15.2,0.1,29.8,0.6,42.5c-8.9-0.5-18.5-1.1-27.8-1.7
		L1662.7,136.1z M1662,188.2c7.2,0.4,13.7,1,18.2,1.6c2.1,0.3,5.7,0.5,10.3,0.5c0.3,5.1,0.6,9.7,1,13.6c1,9.5,1.8,16.9,2.3,23.2
		h-32.3L1662,188.2z M1659.7,368.4c9.4-0.4,19.5-0.8,29.6-1.2c-0.1,12.5-0.1,25.2-0.1,37.2c-9.4-0.1-19.8,0-29.9,0.2L1659.7,368.4z
		 M1658.4,463.4l0.6-42c10.3-0.1,20.9-0.3,30.1-0.6c0,19.4,0.2,35.7,0.2,44.9C1677.5,464.6,1666.8,463.8,1658.4,463.4z
		 M1689.3,355.3c-9.2,0.5-19.6,0.9-29.5,1.3l0.6-45.1l29.9-0.6C1689.8,323.7,1689.5,339.1,1689.3,355.3z M1691.5,288.7
		c-0.1,1.5-0.3,3.2-0.4,4.9c-9.8,0.3-20.4,0.6-30.5,1l0.6-48.5l33.4-0.9C1694.8,257,1693.5,267.2,1691.5,288.7z M1701.3,136.1
		c0.8,0,1.5,0,2,0c3.8,0,14.3-0.5,27.6-1.3c0,0.4,0,0.9,0,1.3c0.4,10,1.6,26.9,2.9,43c-3.7,0.2-6.9,0.4-9.4,0.5
		c-5,0.2-13.7,0-24-0.5C1700.6,171.3,1700.9,155.1,1701.3,136.1z M1734.7,189.3c1.5,18.3,3,33.5,3,33.5s0.1,1.5,0.3,4.2h-32.5
		c-1.7-13.8-3.8-26.7-4.6-36.8C1710.4,190.2,1722.2,189.8,1734.7,189.3z M1705.4,467.2c0-8.8,0-26.1,0-47c6.4,0,15,0.8,24.7,2.2
		c-0.6,21-0.6,38.8,0.6,47.5C1722.2,468.9,1713.7,468,1705.4,467.2z M1730.6,408.3c-5.1-1.1-9.2-1.9-12-2.4
		c-2.9-0.5-7.5-0.9-13.1-1.1c0-12.2,0.1-25.2,0.2-38.1c9.8-0.3,19.1-0.6,27.1-0.7C1731.8,380,1731.1,394.6,1730.6,408.3z
		 M1733.4,353.9c-8.3-0.5-15.2-0.7-19.3-0.3c-2.1,0.2-5,0.5-8.5,0.7c0.1-15.5,0.3-30.5,0.5-43.7l30.5-0.6
		C1735.7,321.5,1734.5,337,1733.4,353.9z M1738.3,293.4c-6.1-0.1-11.6-0.2-16.1-0.2c-4.3,0-9.7,0-15.7,0.2
		c0.2-9.4,0.5-16.9,0.9-21.6c0.6-8.8,0.4-17.8-0.2-26.8l31.7-0.9C1739.5,257.6,1739.7,275.9,1738.3,293.4z M1744.3,75
		c9.6-1.5,20.8-3.5,31.5-5.5c-0.1,15.8-0.2,33.1,0,48.6c-4.6,0.7-9.5,1.4-14.7,2.2c-5,0.8-11.8,1.3-19.9,1.7
		C1741.4,109.4,1742.7,91.9,1744.3,75z M1741.3,134.2c11.1-0.7,23.2-1.5,34.6-2.2c0.1,6.4,0.3,12.2,0.6,17.1
		c0.4,8.3,1.1,17.6,1.9,27.1c-11.1,0.8-22.6,1.5-32.6,2.2c-1.7-18.7-3.3-35.3-4.3-42.3C1741.5,135.6,1741.4,134.9,1741.3,134.2z
		 M1764,415.6c-7.6-1.7-15.2-3.4-22-4.8c0.3-11,1-22.8,2.4-34.7c0.4-3.4,0.8-6.8,1.1-10.3c3.2,0,5.9,0.1,7.9,0.2
		c3.4,0.2,7.2,0.6,11.1,1.2C1763.4,380.9,1763.5,398.5,1764,415.6z M1743.8,471.3c-0.8-8.4-2.1-25.8-2-47.1
		c7.5,1.2,15.2,2.7,22.7,4.1c0.9,20.8,2.3,38.9,2.9,45.7C1760,473.1,1752,472.2,1743.8,471.3z M1765.8,356.8
		c-6.4-0.7-12.9-1.3-19.1-1.9c1.6-15.6,3-31.1,4.2-45.1l25.9-0.5c-2.9,15.6-6.1,30.6-9.2,39.7
		C1766.8,351.2,1766.3,353.8,1765.8,356.8z M1776.5,392.2c0.5-4.3,1.8-12.3,3.5-22c10,2.2,19.6,4.7,25.8,6.4c-0.6,4.8-1,9-1.1,12.2
		c-0.3,9.2,0.1,22.5,0.7,36.1c-7.5-1.7-18.2-4.1-29.7-6.7C1775.7,406.8,1775.9,397,1776.5,392.2z M1776.3,475
		c-0.2-9.6-0.6-27.5-0.7-44.5c12.7,2.6,23.8,5.1,30.3,6.7c1.2,22.1,2.6,41.8,2.6,41.8C1805.8,478.7,1793.4,477.1,1776.3,475z
		 M1807.8,362c-5.5-0.7-14.9-2-25.8-3.2c2.8-16.1,6.1-34.7,8.6-49.6l26.6-0.5C1813.8,326.9,1810.3,346.1,1807.8,362z M1827.3,248.6
		c-0.5,7.9-3.8,26.3-7.8,47.6c-6.3-0.3-15.8-0.7-26.8-1.1c0.4-2.6,0.7-5,0.9-7c1.3-11,3.1-28.4,3.8-45.8l29.8-0.8
		C1827.4,244.5,1827.4,246.9,1827.3,248.6z"/>
	<polygon style="fill:#1A4253;" points="1608.4,15.9 1569.8,25.9 1569.8,49.5 1602.7,40.7 1602.7,459.3 1570.1,445.1 1570.1,466.9 
		1608.4,481.3 1622.4,480.2 1622.4,480.2 1622.4,466.3 1622.4,421.6 1622.4,405.6 1622.4,370 1622.4,358 1622.4,312.3 1622.4,296.1 
		1622.4,247.1 1622.4,227.1 1622.4,186.6 1622.4,173.9 1622.4,136.1 1622.4,120.6 1622.4,81 1622.4,68.7 1622.4,31.4 1622.4,15.9 
		1622.4,15.9 	"/>
</g>
<g id="Layer_2_1_">
	<path style="fill:#59284F;" d="M134.2,422.9c-15.4,2.5-39.3,19.4-30.5,48.6c8.7,29.1,50.9,40.2,67.6,9.7
		c11.8-21.4,5.4-41.1-8.7-50.2C162.6,431,148,420.6,134.2,422.9z"/>
	<path style="fill:#59284F;" d="M480.1,446.7c-5.4-15.7-27.2-37.9-55.6-23.4s-32,60.8,2.5,73c24.2,8.5,43.3-1.8,50.1-18.2
		C477,478,485,460.8,480.1,446.7z"/>
</g>
<g id="Layer_3">
	<polygon style="fill:#1A4253;" points="96.1,382 145.5,344.3 145.6,344.3 140.3,314.2 128.6,248.3 124.8,227.2 116,177.4 
		111.6,153.1 100.8,92.4 97.9,75.7 87.1,14.9 0,0.7 0,41.5 58.6,49.9 106.7,333.4 43.3,376.4 37.7,419 484.4,413.3 484.4,373 	"/>
</g>
</svg>
