<?xml version="1.0" encoding="utf-8"?>
<!-- Generator: Adobe Illustrator 22.0.1, SVG Export Plug-In . SVG Version: 6.00 Build 0)  -->
<svg version="1.1" xmlns="http://www.w3.org/2000/svg" xmlns:xlink="http://www.w3.org/1999/xlink" x="0px" y="0px"
	 viewBox="0 0 500 500" style="enable-background:new 0 0 500 500;" xml:space="preserve">
<style type="text/css">
	.st0{fill:#393653;}
	.st1{fill:#334F6D;}
</style>
<g id="Layer_1">
	<path class="st0" d="M463.7,216.5c-3.4-14.5-63.6-176.4-218.6-182.5c-78.6-3.1-130.5,23-163.8,52.5c-32.4,28.7-47.1,60.5-51.5,71.7
		c-8.9,22.7-74.1,158.1,21.4,253.5s201,87.5,201,87.5c94.6-14.2,149.3-51.8,180.3-95.3C484.2,331.2,469.7,242.1,463.7,216.5z"/>
</g>
<g id="Layer_2">
	<path class="st1" d="M493.5,183.5C490.2,169,429.9,7.2,275,1C167.2-3.3,109.6,47.5,81.4,86.4c33.3-29.5,85.2-55.6,163.8-52.5
		c154.9,6.2,215.2,168,218.6,182.5c5.9,25.6,20.4,114.8-31.1,187.3C518.7,328.2,500.4,213.2,493.5,183.5z"/>
</g>
</svg>
