<svg id="Layer_1" data-name="Layer 1" xmlns="http://www.w3.org/2000/svg" width="500.17" height="498.62" viewBox="0 0 500.17 498.62">
  <title>hole-2</title>
  <g id="Layer_1-2" data-name="Layer 1">
    <path d="M463.7,216.5C460.3,202,400.1,40.1,245.1,34,166.5,30.9,114.6,57,81.3,86.5,48.9,115.2,34.2,147,29.8,158.2c-8.9,22.7-74.1,158.1,21.4,253.5s201,87.5,201,87.5c94.6-14.2,149.3-51.8,180.3-95.3C484.2,331.2,469.7,242.1,463.7,216.5Z" transform="translate(0.18 -0.74)" style="fill: #393653"/>
  </g>
  <g id="Layer_2" data-name="Layer 2">
    <path d="M493.5,183.5C490.2,169,429.9,7.2,275,1,167.2-3.3,109.6,47.5,81.4,86.4c33.3-29.5,85.2-55.6,163.8-52.5,154.9,6.2,215.2,168,218.6,182.5,5.9,25.6,20.4,114.8-31.1,187.3C518.7,328.2,500.4,213.2,493.5,183.5Z" transform="translate(0.18 -0.74)" style="fill: #334f6d"/>
  </g>
</svg>
