<?xml version="1.0" encoding="utf-8"?>
<!-- Generator: Adobe Illustrator 24.0.3, SVG Export Plug-In . SVG Version: 6.00 Build 0)  -->
<svg version="1.1" id="Layer_1" xmlns="http://www.w3.org/2000/svg" xmlns:xlink="http://www.w3.org/1999/xlink" x="0px" y="0px"
	 viewBox="0 0 500 500" style="enable-background:new 0 0 500 500;" xml:space="preserve">
<g id="Layer_1_1_">
	<path style="fill:none;" d="M206.1,56.4c0.1-13.3,0.3-24.7,0.5-32c-6.8,2-13.3,3.9-17.7,5.1c-2.6,0.7-6,1.3-10,1.8
		c-0.8,7.6-2.1,19.2-3.3,32c5.4-0.7,10-1.4,13.3-2.3C194.6,59.4,200.5,57.9,206.1,56.4z"/>
	<path style="fill:none;" d="M180.3,226.1h33.5c-1.3-11.1-2.8-25.2-4.2-39.7c-10.4,0.5-21.6,1-32.7,1.5
		C178.1,201,179.3,214.5,180.3,226.1z"/>
	<path style="fill:none;" d="M183.2,255.7c0.8,4.2,0.3,18.2-1,37c8.8,0.3,18.2,0.6,27.2,0.9c4.1-24.2,7-46,7-46s-0.3-2.2-0.7-5.9
		l-33.9,0.9C182.4,249.2,182.9,253.9,183.2,255.7z"/>
	<path style="fill:none;" d="M237.5,48.4c0.4-18.1,1.3-33.5,1.3-33.5s-10.5,3.1-22.3,6.6c0,6.7,0.1,18.2,0.2,32.2
		C225,51.5,232.4,49.7,237.5,48.4z"/>
	<path style="fill:none;" d="M119.6,135.1c-7.6,0-17,0-26.7,0l-0.5,40.7c9.3,0.6,18.8,1.2,27.8,1.7
		C119.8,164.9,119.6,150.3,119.6,135.1z"/>
	<path style="fill:none;" d="M120.3,77.2c-8.5,0.3-17.7,0.7-26.6,1.1L93.1,121c8.5,0.2,17.5,0.4,26.5,0.5
		C119.8,106.2,120,90.9,120.3,77.2z"/>
	<path style="fill:none;" d="M237.3,62.2c-4.8,1-12.1,2.5-20.5,4.1c0.2,15.3,0.5,32.4,1,49.1c10.4-1.4,18.4-2.5,23.3-3.1
		c-0.9-5.9-1.7-10.8-2.3-14.3C237.5,90.2,237.2,76.4,237.3,62.2z"/>
	<path style="fill:none;" d="M167.3,32.4c-9.8,0.6-21.4,0.8-33.4,0.8c-0.2,7.3-0.5,19.2-0.8,33.2c11.3-0.5,22.2-1.1,31.6-1.9
		C165.7,51.2,166.7,39.5,167.3,32.4z"/>
	<path style="fill:none;" d="M161.3,121.3c0.4-12.7,1.5-29.7,2.6-45.9c-3.8,0.4-6.9,0.7-9.2,0.7c-3.9,0-11.9,0.2-21.9,0.6
		c-0.3,14.3-0.7,30-1,44.9C142.1,121.6,152.2,121.6,161.3,121.3z"/>
	<path style="fill:none;" d="M121.5,33c-9.3-0.2-18.6-0.4-27.2-0.7l-0.5,35.1c8.5-0.1,17.6-0.3,26.7-0.6
		C120.9,52.3,121.3,40.3,121.5,33z"/>
	<path style="fill:none;" d="M1648.8,404.9l0.3-36c-11.6,0.5-21.1,0.9-26.7,1.2v35.6C1628.9,405.4,1638.3,405.1,1648.8,404.9z"/>
	<path style="fill:none;" d="M81.1,175l0.4-39.9c-11.3,0-21.8,0-28.9,0v37.8C59.4,173.4,69.7,174.2,81.1,175z"/>
	<path style="fill:none;" d="M80.6,226.1l0.4-39.5c-10.4-0.5-20.9-0.8-28.4-1V226h28V226.1z"/>
	<path style="fill:none;" d="M82.1,67.5l0.3-35.7c-15.4-0.6-27-1.3-29.9-1.4v37.3C58.6,67.7,69.3,67.7,82.1,67.5z"/>
	<path style="fill:none;" d="M81.6,120.6L82,78.7c-11.8,0.5-22.4,1-29.4,1.3v39.6C59,119.9,69.3,120.3,81.6,120.6z"/>
	<path style="fill:none;" d="M220.7,174.4c13.4-0.9,24.7-1.7,29.3-2.1c-2.1-15.4-4.4-30.8-6.4-43.9c-6.1,0.4-15.1,1-25.4,1.7
		C218.8,146.9,219.6,162.5,220.7,174.4z"/>
	<path style="fill:none;" d="M80,294l0.5-48.6l-27.9,0.8v48.9C59.5,294.8,69.2,294.4,80,294z"/>
	<path style="fill:none;" d="M1642.9,463.4c1.4-0.2,3.2-0.2,5.3-0.3l0.4-41.7c-10.5,0.1-20,0.1-26.2,0.1v44.8
		C1627.7,465.4,1634.6,464.3,1642.9,463.4z"/>
	<path style="fill:none;" d="M223.9,195.6c2.7,7.5,3.8,18.5,4,30.5h28.6c-1.1-11.8-2.9-26.5-4.9-41.9c-6.6,0.4-17.1,1-29.7,1.6
		C222.5,190.1,223.2,193.5,223.9,195.6z"/>
	<path style="fill:none;" d="M121.7,202.9c-0.4-3.9-0.8-8.5-1-13.6c-4.6-0.1-8.2-0.2-10.3-0.5c-4.5-0.6-11-1.2-18.2-1.6l-0.5,38.9
		H124C123.5,219.8,122.8,212.4,121.7,202.9z"/>
	<path style="fill:none;" d="M79.4,357.1l0.4-45.3l-27.2,0.5V358C58.3,357.8,68.1,357.5,79.4,357.1z"/>
	<path style="fill:none;" d="M1730.1,422.3c-9.7-1.4-18.3-2.2-24.7-2.2c0,21,0,38.2,0,47c8.3,0.8,16.8,1.7,25.3,2.6
		C1729.5,461,1729.5,443.3,1730.1,422.3z"/>
	<path style="fill:none;" d="M181.1,309.8c-1.1,14-2.5,29.5-4.2,45.1c6.2,0.5,12.7,1.2,19.1,1.9c0.5-3,1.1-5.7,1.8-7.8
		c3.1-9.1,6.3-24.1,9.2-39.7L181.1,309.8z"/>
	<path style="fill:none;" d="M1804.7,388.9c0.1-3.2,0.5-7.4,1.1-12.2c-6.2-1.7-15.7-4.3-25.8-6.4c-1.7,9.7-3,17.7-3.5,22
		c-0.6,4.8-0.8,14.6-0.9,26c11.5,2.6,22.3,5,29.7,6.7C1804.8,411.4,1804.4,398,1804.7,388.9z"/>
	<path style="fill:none;" d="M1741.8,424.1c0,21.4,1.3,38.7,2,47.1c8.2,0.9,16.1,1.8,23.5,2.7c-0.5-6.8-1.9-24.9-2.9-45.7
		C1757,426.8,1749.3,425.4,1741.8,424.1z"/>
	<path style="fill:none;" d="M1753.4,366.1c-2-0.1-4.7-0.2-7.9-0.2c-0.4,3.4-0.8,6.9-1.1,10.3c-1.4,11.9-2.1,23.6-2.4,34.7
		c6.8,1.5,14.4,3.1,22,4.8c-0.5-17.1-0.6-34.7,0.5-48.3C1760.6,366.7,1756.8,366.3,1753.4,366.1z"/>
	<path style="fill:none;" d="M208.6,175.3c-0.8-9.5-1.5-18.8-1.9-27.1c-0.2-4.9-0.4-10.7-0.6-17.1c-11.4,0.8-23.5,1.6-34.6,2.2
		c0.1,0.7,0.1,1.3,0.2,1.9c1.1,7,2.6,23.6,4.3,42.3C186,176.8,197.6,176,208.6,175.3z"/>
	<path style="fill:none;" d="M227.7,241.4c-0.6,17.4-2.5,34.8-3.8,45.8c-0.2,2-0.6,4.4-0.9,7c10.9,0.4,20.5,0.8,26.8,1.1
		c3.9-21.2,7.2-39.6,7.8-47.6c0.1-1.8,0.1-4.2,0-7L227.7,241.4z"/>
	<path style="fill:none;" d="M1689.1,404.4c0-12.1,0-24.7,0.1-37.2c-10.1,0.4-20.2,0.8-29.6,1.2l-0.5,36.3
		C1669.2,404.5,1679.7,404.4,1689.1,404.4z"/>
	<path style="fill:none;" d="M1775.7,430.5c0.1,17,0.5,34.9,0.7,44.5c17,2,29.5,3.6,32.3,4c0,0-1.5-19.7-2.6-41.8
		C1799.4,435.7,1788.4,433.2,1775.7,430.5z"/>
	<path style="fill:none;" d="M212.2,358.7c10.9,1.3,20.3,2.5,25.8,3.2c2.5-15.8,6-35.1,9.4-53.4l-26.6,0.5
		C218.4,324,215.1,342.6,212.2,358.7z"/>
	<path style="fill:none;" d="M168.2,226.1c-0.2-2.7-0.3-4.2-0.3-4.2s-1.4-15.2-3-33.5c-12.5,0.5-24.3,0.8-33.9,0.9
		c0.9,10.1,3,22.9,4.6,36.8H168.2z"/>
	<path style="fill:none;" d="M91.5,245.1l-0.6,48.5c10.1-0.4,20.7-0.7,30.5-1c0.1-1.8,0.3-3.4,0.4-4.9c2-21.5,3.2-31.7,3.2-43.5
		L91.5,245.1z"/>
	<path style="fill:none;" d="M135.9,354.4c3.5-0.2,6.4-0.5,8.5-0.7c4-0.4,10.9-0.3,19.3,0.3c1.1-17,2.3-32.4,3.3-43.8l-30.5,0.6
		C136.2,323.9,136,338.9,135.9,354.4z"/>
	<path style="fill:none;" d="M1705.4,404.8c5.6,0.2,10.2,0.6,13.1,1.1c2.8,0.5,7,1.4,12,2.4c0.5-13.8,1.3-28.3,2.1-42.4
		c-7.9,0.1-17.2,0.4-27.1,0.7C1705.5,379.6,1705.5,392.5,1705.4,404.8z"/>
	<path style="fill:none;" d="M205.9,117.1c-0.2-15.5-0.1-32.8,0-48.6c-10.6,2-21.9,4-31.5,5.5c-1.5,16.9-2.9,34.5-3.2,47
		c8-0.4,14.9-0.9,19.9-1.7C196.4,118.5,201.3,117.8,205.9,117.1z"/>
	<path style="fill:none;" d="M154.7,178.6c2.5-0.1,5.7-0.3,9.4-0.5c-1.3-16.2-2.5-33-2.9-43c0-0.4,0-0.8,0-1.3
		c-13.3,0.8-23.8,1.3-27.6,1.3c-0.6,0-1.3,0-2,0c-0.4,19-0.7,35.2-0.8,43C141.1,178.6,149.8,178.8,154.7,178.6z"/>
	<path style="fill:none;" d="M1659,421.4l-0.6,42c8.4,0.4,19.1,1.2,30.9,2.2c-0.1-9.1-0.2-25.5-0.2-44.9
		C1679.9,421.1,1669.3,421.2,1659,421.4z"/>
	<path style="fill:none;" d="M137.4,243.9c0.6,9,0.8,18,0.2,26.8c-0.3,4.7-0.6,12.3-0.9,21.6c6-0.1,11.4-0.2,15.7-0.2
		c4.5,0,10,0.1,16.1,0.2c1.4-17.5,1.2-35.8,0.6-49.4L137.4,243.9z"/>
	<path style="fill:none;" d="M90,356.7c10-0.4,20.3-0.8,29.5-1.3c0.2-16.2,0.5-31.6,0.9-44.3l-29.9,0.6L90,356.7z"/>
	<polygon style="fill:#1A4253;" points="38.6,14.9 0,24.9 0,48.5 32.9,39.7 32.9,458.3 0.3,444.1 0.3,465.9 38.6,480.3 52.6,479.2 
		52.6,479.2 52.6,465.3 52.6,420.6 52.6,404.6 52.6,369 52.6,357 52.6,311.3 52.6,295.1 52.6,246.1 52.6,226.1 52.6,185.6 
		52.6,172.9 52.6,135.1 52.6,119.6 52.6,80 52.6,67.7 52.6,30.4 52.6,14.9 52.6,14.9 	"/>
</g>
<g id="Layer_2_1_">
	<path style="fill:#E9DED1;" d="M252.1,65.1c4-44.9,5.4-57.6,5.4-57.6s-3.4-7.2-10.9-7.2s-61.7,19.1-85.4,18.6S52.6,14.8,52.6,14.8
		l0,0v15.5c2.9,0.1,14.5,0.8,29.9,1.4l-0.3,35.7c-12.9,0.1-23.6,0.1-29.6,0.1V80c7-0.3,17.6-0.8,29.4-1.3l-0.4,41.9
		c-12.3-0.4-22.6-0.7-29-1v15.5c7.1,0,17.6,0,28.9,0L81.1,175c-11.5-0.8-21.7-1.6-28.5-2.1v12.7c7.5,0.2,18,0.5,28.4,1l-0.4,39.5
		h-28v20.1l27.9-0.8L80,294c-10.8,0.4-20.5,0.8-27.4,1.1v16.3l27.2-0.5l-0.4,45.3c-11.3,0.4-21.1,0.8-26.8,0.9v12
		c5.6-0.3,15.1-0.7,26.7-1.2l-0.3,36c-10.4,0.2-19.8,0.5-26.4,0.7v16c6.2,0,15.7,0,26.2-0.1l-0.4,41.7c-2.1,0-3.9,0.1-5.3,0.3
		c-8.3,0.9-15.2,2-20.5,2.9v13.9c18.6-1.4,50.8-3.3,67.1-1.2c23.7,3,90.4,12.1,107.9,17.2c17.5,5.2,22.2,3.5,22.2,3.5l7.7-13.4
		c0,0-10-84.9-5.3-121.7s18.7-100.3,18.7-100.3s-0.4-17.8,0-28.8C271.3,223.5,248,110,252.1,65.1z M256.4,226.1h-28.6
		c-0.2-12-1.3-23-4-30.5c-0.7-2.1-1.4-5.4-2-9.8c12.5-0.6,23.1-1.2,29.7-1.6C253.6,199.6,255.4,214.3,256.4,226.1z M250,172.4
		c-4.6,0.3-15.9,1.1-29.3,2.1c-1.1-12-1.9-27.5-2.4-44.2c10.3-0.7,19.2-1.3,25.4-1.7C245.6,141.6,247.9,157,250,172.4z M217.8,115.4
		c-0.5-16.7-0.8-33.8-1-49.1c8.4-1.6,15.7-3.1,20.5-4.1c-0.1,14.1,0.2,27.9,1.5,35.8c0.6,3.5,1.4,8.4,2.3,14.3
		C236.2,113,228.1,114,217.8,115.4z M238.8,14.9c0,0-0.9,15.4-1.3,33.5c-5.1,1.3-12.4,3.1-20.8,5.3c-0.1-14-0.2-25.4-0.2-32.2
		C228.3,18,238.8,14.9,238.8,14.9z M216.5,247.6c0,0-2.9,21.8-7,46c-9-0.3-18.4-0.6-27.2-0.9c1.3-18.8,1.8-32.8,1-37
		c-0.3-1.8-0.8-6.5-1.5-13.1l33.9-0.9C216.2,245.5,216.5,247.6,216.5,247.6z M213.8,226.1h-33.5c-1-11.5-2.2-25-3.3-38.2
		c11-0.5,22.2-1,32.7-1.5C211,200.8,212.6,215,213.8,226.1z M178.8,31.4c4-0.5,7.4-1.1,10-1.8c4.4-1.2,10.9-3.1,17.7-5.1
		c-0.1,7.3-0.3,18.7-0.5,32c-5.6,1.5-11.4,3-17.3,4.6c-3.3,0.9-7.9,1.7-13.3,2.3C176.7,50.6,178,39,178.8,31.4z M133.9,33.2
		c12,0,23.6-0.2,33.4-0.8c-0.6,7.1-1.6,18.8-2.6,32c-9.4,0.8-20.3,1.4-31.6,1.9C133.4,52.3,133.7,40.5,133.9,33.2z M132.9,76.7
		c9.9-0.3,17.9-0.6,21.9-0.6c2.2,0,5.4-0.3,9.2-0.7c-1.2,16.2-2.2,33.2-2.6,45.9c-9.1,0.2-19.2,0.3-29.5,0.2
		C132.2,106.7,132.5,91,132.9,76.7z M94.3,32.3c8.6,0.3,17.9,0.6,27.2,0.7c-0.2,7.3-0.6,19.2-0.9,33.8c-9.1,0.3-18.2,0.5-26.7,0.6
		L94.3,32.3z M93.7,78.2c8.9-0.4,18.1-0.7,26.6-1.1c-0.3,13.7-0.5,29-0.6,44.3c-9.1-0.1-18.1-0.3-26.5-0.5L93.7,78.2z M92.9,135.1
		c9.7,0,19.1,0,26.7,0c0,15.2,0.1,29.8,0.6,42.5c-8.9-0.5-18.5-1.1-27.8-1.7L92.9,135.1z M92.3,187.2c7.2,0.4,13.7,1,18.2,1.6
		c2.1,0.3,5.7,0.5,10.3,0.5c0.3,5.1,0.6,9.7,1,13.6c1,9.5,1.8,16.9,2.3,23.2H91.7L92.3,187.2z M89.9,367.4
		c9.4-0.4,19.5-0.8,29.6-1.2c-0.1,12.5-0.1,25.2-0.1,37.2c-9.4-0.1-19.8,0-29.9,0.2L89.9,367.4z M88.6,462.4l0.6-42
		c10.3-0.1,20.9-0.3,30.1-0.6c0,19.4,0.2,35.7,0.2,44.9C107.7,463.6,97,462.8,88.6,462.4z M119.5,354.3c-9.2,0.5-19.6,0.9-29.5,1.3
		l0.6-45.1l29.9-0.6C120,322.7,119.7,338.1,119.5,354.3z M121.7,287.7c-0.1,1.5-0.3,3.2-0.4,4.9c-9.8,0.3-20.4,0.6-30.5,1l0.6-48.5
		l33.4-0.9C125,256,123.7,266.2,121.7,287.7z M131.5,135.1c0.8,0,1.5,0,2,0c3.8,0,14.3-0.5,27.6-1.3c0,0.4,0,0.9,0,1.3
		c0.4,10,1.6,26.9,2.9,43c-3.7,0.2-6.9,0.4-9.4,0.5c-5,0.2-13.7,0-24-0.5C130.8,170.3,131.1,154.1,131.5,135.1z M164.9,188.3
		c1.5,18.3,3,33.5,3,33.5s0.1,1.5,0.3,4.2h-32.5c-1.7-13.8-3.8-26.7-4.6-36.8C140.6,189.2,152.4,188.8,164.9,188.3z M135.6,466.2
		c0-8.8,0-26.1,0-47c6.4,0,15,0.8,24.7,2.2c-0.6,21-0.6,38.8,0.6,47.5C152.4,467.9,143.9,467,135.6,466.2z M160.8,407.3
		c-5.1-1.1-9.2-1.9-12-2.4c-2.9-0.5-7.5-0.9-13.1-1.1c0-12.2,0.1-25.2,0.2-38.1c9.8-0.3,19.1-0.6,27.1-0.7
		C162,379,161.3,393.6,160.8,407.3z M163.6,352.9c-8.3-0.5-15.2-0.7-19.3-0.3c-2.1,0.2-5,0.5-8.5,0.7c0.1-15.5,0.3-30.5,0.5-43.7
		l30.5-0.6C165.9,320.5,164.7,336,163.6,352.9z M168.5,292.4c-6.1-0.1-11.6-0.2-16.1-0.2c-4.3,0-9.7,0-15.7,0.2
		c0.2-9.4,0.5-16.9,0.9-21.6c0.6-8.8,0.4-17.8-0.2-26.8l31.7-0.9C169.7,256.6,169.9,274.9,168.5,292.4z M174.5,74
		c9.6-1.5,20.8-3.5,31.5-5.5c-0.1,15.8-0.2,33.1,0,48.6c-4.6,0.7-9.5,1.4-14.7,2.2c-5,0.8-11.8,1.3-19.9,1.7
		C171.6,108.4,172.9,90.9,174.5,74z M171.5,133.2c11.1-0.7,23.2-1.5,34.6-2.2c0.1,6.4,0.3,12.2,0.6,17.1c0.4,8.3,1.1,17.6,1.9,27.1
		c-11.1,0.8-22.6,1.5-32.6,2.2c-1.7-18.7-3.3-35.3-4.3-42.3C171.7,134.6,171.6,133.9,171.5,133.2z M194.2,414.6
		c-7.6-1.7-15.2-3.4-22-4.8c0.3-11,1-22.8,2.4-34.7c0.4-3.4,0.8-6.8,1.1-10.3c3.2,0,5.9,0.1,7.9,0.2c3.4,0.2,7.2,0.6,11.1,1.2
		C193.6,379.9,193.7,397.5,194.2,414.6z M174,470.3c-0.8-8.4-2.1-25.8-2-47.1c7.5,1.2,15.2,2.7,22.7,4.1c0.9,20.8,2.3,38.9,2.9,45.7
		C190.2,472.1,182.2,471.2,174,470.3z M196,355.8c-6.4-0.7-12.9-1.3-19.1-1.9c1.6-15.6,3-31.1,4.2-45.1l25.9-0.5
		c-2.9,15.6-6.1,30.6-9.2,39.7C197,350.2,196.5,352.8,196,355.8z M206.7,391.2c0.5-4.3,1.8-12.3,3.5-22c10,2.2,19.6,4.7,25.8,6.4
		c-0.6,4.8-1,9-1.1,12.2c-0.3,9.2,0.1,22.5,0.7,36.1c-7.5-1.7-18.2-4.1-29.7-6.7C205.9,405.8,206.1,396,206.7,391.2z M206.5,474
		c-0.2-9.6-0.6-27.5-0.7-44.5c12.7,2.6,23.8,5.1,30.3,6.7c1.2,22.1,2.6,41.8,2.6,41.8C236,477.7,223.6,476.1,206.5,474z M238.1,361
		c-5.5-0.7-14.9-2-25.8-3.2c2.8-16.1,6.1-34.7,8.6-49.6l26.6-0.5C244,325.9,240.5,345.1,238.1,361z M257.5,247.6
		c-0.5,7.9-3.8,26.3-7.8,47.6c-6.3-0.3-15.8-0.7-26.8-1.1c0.4-2.6,0.7-5,0.9-7c1.3-11,3.1-28.4,3.8-45.8l29.8-0.8
		C257.6,243.5,257.6,245.9,257.5,247.6z"/>
</g>
</svg>
