<svg id="Layer_1" data-name="Layer 1" xmlns="http://www.w3.org/2000/svg" width="1808.7" height="498.77" viewBox="0 0 1808.7 498.77">
  <title>soccer_goal-2</title>
  <g id="Layer_1-2" data-name="Layer 1">
    <path d="M206.1,56.4c.1-13.3.3-24.7.5-32-6.8,2-13.3,3.9-17.7,5.1a76.68,76.68,0,0,1-10,1.8c-.8,7.6-2.1,19.2-3.3,32A108.14,108.14,0,0,0,188.9,61C194.6,59.4,200.5,57.9,206.1,56.4Z" transform="translate(0 -0.3)" style="fill: none"/>
    <path d="M180.3,226.1h33.5c-1.3-11.1-2.8-25.2-4.2-39.7-10.4.5-21.6,1-32.7,1.5C178.1,201,179.3,214.5,180.3,226.1Z" transform="translate(0 -0.3)" style="fill: none"/>
    <path d="M183.2,255.7c.8,4.2.3,18.2-1,37l27.2.9c4.1-24.2,7-46,7-46s-.3-2.2-.7-5.9l-33.9.9C182.4,249.2,182.9,253.9,183.2,255.7Z" transform="translate(0 -0.3)" style="fill: none"/>
    <path d="M237.5,48.4c.4-18.1,1.3-33.5,1.3-33.5l-22.3,6.6c0,6.7.1,18.2.2,32.2C225,51.5,232.4,49.7,237.5,48.4Z" transform="translate(0 -0.3)" style="fill: none"/>
    <path d="M119.6,135.1H92.9l-.5,40.7c9.3.6,18.8,1.2,27.8,1.7C119.8,164.9,119.6,150.3,119.6,135.1Z" transform="translate(0 -0.3)" style="fill: none"/>
    <path d="M120.3,77.2c-8.5.3-17.7.7-26.6,1.1L93.1,121c8.5.2,17.5.4,26.5.5C119.8,106.2,120,90.9,120.3,77.2Z" transform="translate(0 -0.3)" style="fill: none"/>
    <path d="M237.3,62.2c-4.8,1-12.1,2.5-20.5,4.1.2,15.3.5,32.4,1,49.1,10.4-1.4,18.4-2.5,23.3-3.1-.9-5.9-1.7-10.8-2.3-14.3C237.5,90.2,237.2,76.4,237.3,62.2Z" transform="translate(0 -0.3)" style="fill: none"/>
    <path d="M167.3,32.4c-9.8.6-21.4.8-33.4.8-.2,7.3-.5,19.2-.8,33.2,11.3-.5,22.2-1.1,31.6-1.9C165.7,51.2,166.7,39.5,167.3,32.4Z" transform="translate(0 -0.3)" style="fill: none"/>
    <path d="M161.3,121.3c.4-12.7,1.5-29.7,2.6-45.9-3.8.4-6.9.7-9.2.7-3.9,0-11.9.2-21.9.6-.3,14.3-.7,30-1,44.9C142.1,121.6,152.2,121.6,161.3,121.3Z" transform="translate(0 -0.3)" style="fill: none"/>
    <path d="M121.5,33c-9.3-.2-18.6-.4-27.2-.7l-.5,35.1c8.5-.1,17.6-.3,26.7-.6C120.9,52.3,121.3,40.3,121.5,33Z" transform="translate(0 -0.3)" style="fill: none"/>
    <path d="M1648.8,404.9l.3-36c-11.6.5-21.1.9-26.7,1.2v35.6C1628.9,405.4,1638.3,405.1,1648.8,404.9Z" transform="translate(0 -0.3)" style="fill: none"/>
    <path d="M81.1,175l.4-39.9H52.6v37.8C59.4,173.4,69.7,174.2,81.1,175Z" transform="translate(0 -0.3)" style="fill: none"/>
    <path d="M80.6,226.1l.4-39.5c-10.4-.5-20.9-.8-28.4-1V226h28Z" transform="translate(0 -0.3)" style="fill: none"/>
    <path d="M82.1,67.5l.3-35.7c-15.4-.6-27-1.3-29.9-1.4V67.7C58.6,67.7,69.3,67.7,82.1,67.5Z" transform="translate(0 -0.3)" style="fill: none"/>
    <path d="M81.6,120.6,82,78.7c-11.8.5-22.4,1-29.4,1.3v39.6C59,119.9,69.3,120.3,81.6,120.6Z" transform="translate(0 -0.3)" style="fill: none"/>
    <path d="M220.7,174.4c13.4-.9,24.7-1.7,29.3-2.1-2.1-15.4-4.4-30.8-6.4-43.9-6.1.4-15.1,1-25.4,1.7C218.8,146.9,219.6,162.5,220.7,174.4Z" transform="translate(0 -0.3)" style="fill: none"/>
    <path d="M80,294l.5-48.6-27.9.8v48.9C59.5,294.8,69.2,294.4,80,294Z" transform="translate(0 -0.3)" style="fill: none"/>
    <path d="M1642.9,463.4c1.4-.2,3.2-.2,5.3-.3l.4-41.7c-10.5.1-20,.1-26.2.1v44.8C1627.7,465.4,1634.6,464.3,1642.9,463.4Z" transform="translate(0 -0.3)" style="fill: none"/>
    <path d="M223.9,195.6c2.7,7.5,3.8,18.5,4,30.5h28.6c-1.1-11.8-2.9-26.5-4.9-41.9-6.6.4-17.1,1-29.7,1.6A60.51,60.51,0,0,0,223.9,195.6Z" transform="translate(0 -0.3)" style="fill: none"/>
    <path d="M121.7,202.9c-.4-3.9-.8-8.5-1-13.6-4.6-.1-8.2-.2-10.3-.5-4.5-.6-11-1.2-18.2-1.6l-.5,38.9H124C123.5,219.8,122.8,212.4,121.7,202.9Z" transform="translate(0 -0.3)" style="fill: none"/>
    <path d="M79.4,357.1l.4-45.3-27.2.5V358C58.3,357.8,68.1,357.5,79.4,357.1Z" transform="translate(0 -0.3)" style="fill: none"/>
    <path d="M1730.1,422.3a184.28,184.28,0,0,0-24.7-2.2v47c8.3.8,16.8,1.7,25.3,2.6C1729.5,461,1729.5,443.3,1730.1,422.3Z" transform="translate(0 -0.3)" style="fill: none"/>
    <path d="M181.1,309.8c-1.1,14-2.5,29.5-4.2,45.1,6.2.5,12.7,1.2,19.1,1.9a53.52,53.52,0,0,1,1.8-7.8c3.1-9.1,6.3-24.1,9.2-39.7Z" transform="translate(0 -0.3)" style="fill: none"/>
    <path d="M1804.7,388.9c.1-3.2.5-7.4,1.1-12.2-6.2-1.7-15.7-4.3-25.8-6.4-1.7,9.7-3,17.7-3.5,22-.6,4.8-.8,14.6-.9,26,11.5,2.6,22.3,5,29.7,6.7C1804.8,411.4,1804.4,398,1804.7,388.9Z" transform="translate(0 -0.3)" style="fill: none"/>
    <path d="M1741.8,424.1c0,21.4,1.3,38.7,2,47.1,8.2.9,16.1,1.8,23.5,2.7-.5-6.8-1.9-24.9-2.9-45.7C1757,426.8,1749.3,425.4,1741.8,424.1Z" transform="translate(0 -0.3)" style="fill: none"/>
    <path d="M1753.4,366.1c-2-.1-4.7-.2-7.9-.2-.4,3.4-.8,6.9-1.1,10.3-1.4,11.9-2.1,23.6-2.4,34.7,6.8,1.5,14.4,3.1,22,4.8-.5-17.1-.6-34.7.5-48.3A94.91,94.91,0,0,0,1753.4,366.1Z" transform="translate(0 -0.3)" style="fill: none"/>
    <path d="M208.6,175.3c-.8-9.5-1.5-18.8-1.9-27.1-.2-4.9-.4-10.7-.6-17.1-11.4.8-23.5,1.6-34.6,2.2.1.7.1,1.3.2,1.9,1.1,7,2.6,23.6,4.3,42.3C186,176.8,197.6,176,208.6,175.3Z" transform="translate(0 -0.3)" style="fill: none"/>
    <path d="M227.7,241.4c-.6,17.4-2.5,34.8-3.8,45.8-.2,2-.6,4.4-.9,7,10.9.4,20.5.8,26.8,1.1,3.9-21.2,7.2-39.6,7.8-47.6.1-1.8.1-4.2,0-7Z" transform="translate(0 -0.3)" style="fill: none"/>
    <path d="M1689.1,404.4c0-12.1,0-24.7.1-37.2-10.1.4-20.2.8-29.6,1.2l-.5,36.3C1669.2,404.5,1679.7,404.4,1689.1,404.4Z" transform="translate(0 -0.3)" style="fill: none"/>
    <path d="M1775.7,430.5c.1,17,.5,34.9.7,44.5,17,2,29.5,3.6,32.3,4,0,0-1.5-19.7-2.6-41.8C1799.4,435.7,1788.4,433.2,1775.7,430.5Z" transform="translate(0 -0.3)" style="fill: none"/>
    <path d="M212.2,358.7c10.9,1.3,20.3,2.5,25.8,3.2,2.5-15.8,6-35.1,9.4-53.4l-26.6.5C218.4,324,215.1,342.6,212.2,358.7Z" transform="translate(0 -0.3)" style="fill: none"/>
    <path d="M168.2,226.1c-.2-2.7-.3-4.2-.3-4.2s-1.4-15.2-3-33.5c-12.5.5-24.3.8-33.9.9.9,10.1,3,22.9,4.6,36.8Z" transform="translate(0 -0.3)" style="fill: none"/>
    <path d="M91.5,245.1l-.6,48.5c10.1-.4,20.7-.7,30.5-1,.1-1.8.3-3.4.4-4.9,2-21.5,3.2-31.7,3.2-43.5Z" transform="translate(0 -0.3)" style="fill: none"/>
    <path d="M135.9,354.4c3.5-.2,6.4-.5,8.5-.7a129.59,129.59,0,0,1,19.3.3c1.1-17,2.3-32.4,3.3-43.8l-30.5.6C136.2,323.9,136,338.9,135.9,354.4Z" transform="translate(0 -0.3)" style="fill: none"/>
    <path d="M1705.4,404.8a107.32,107.32,0,0,1,13.1,1.1c2.8.5,7,1.4,12,2.4.5-13.8,1.3-28.3,2.1-42.4-7.9.1-17.2.4-27.1.7C1705.5,379.6,1705.5,392.5,1705.4,404.8Z" transform="translate(0 -0.3)" style="fill: none"/>
    <path d="M205.9,117.1c-.2-15.5-.1-32.8,0-48.6-10.6,2-21.9,4-31.5,5.5-1.5,16.9-2.9,34.5-3.2,47,8-.4,14.9-.9,19.9-1.7C196.4,118.5,201.3,117.8,205.9,117.1Z" transform="translate(0 -0.3)" style="fill: none"/>
    <path d="M154.7,178.6c2.5-.1,5.7-.3,9.4-.5-1.3-16.2-2.5-33-2.9-43v-1.3c-13.3.8-23.8,1.3-27.6,1.3h-2c-.4,19-.7,35.2-.8,43C141.1,178.6,149.8,178.8,154.7,178.6Z" transform="translate(0 -0.3)" style="fill: none"/>
    <path d="M1659,421.4l-.6,42c8.4.4,19.1,1.2,30.9,2.2-.1-9.1-.2-25.5-.2-44.9C1679.9,421.1,1669.3,421.2,1659,421.4Z" transform="translate(0 -0.3)" style="fill: none"/>
    <path d="M137.4,243.9a200,200,0,0,1,.2,26.8c-.3,4.7-.6,12.3-.9,21.6,6-.1,11.4-.2,15.7-.2,4.5,0,10,.1,16.1.2a415.58,415.58,0,0,0,.6-49.4Z" transform="translate(0 -0.3)" style="fill: none"/>
    <path d="M90,356.7c10-.4,20.3-.8,29.5-1.3.2-16.2.5-31.6.9-44.3l-29.9.6Z" transform="translate(0 -0.3)" style="fill: none"/>
    <polygon points="38.6 14.6 0 24.6 0 48.2 32.9 39.4 32.9 458 0.3 443.8 0.3 465.6 38.6 480 52.6 478.9 52.6 478.9 52.6 465 52.6 420.3 52.6 404.3 52.6 368.7 52.6 356.7 52.6 311 52.6 294.8 52.6 245.8 52.6 225.8 52.6 185.3 52.6 172.6 52.6 134.8 52.6 119.3 52.6 79.7 52.6 67.4 52.6 30.1 52.6 14.6 52.6 14.6 38.6 14.6" style="fill: #1a4253"/>
  </g>
  <g id="Layer_2" data-name="Layer 2">
    <path d="M252.1,65.1c4-44.9,5.4-57.6,5.4-57.6S254.1.3,246.6.3s-61.7,19.1-85.4,18.6S52.6,14.8,52.6,14.8h0V30.3c2.9.1,14.5.8,29.9,1.4l-.3,35.7c-12.9.1-23.6.1-29.6.1V80c7-.3,17.6-.8,29.4-1.3l-.4,41.9c-12.3-.4-22.6-.7-29-1v15.5H81.5L81.1,175c-11.5-.8-21.7-1.6-28.5-2.1v12.7c7.5.2,18,.5,28.4,1l-.4,39.5h-28v20.1l27.9-.8L80,294c-10.8.4-20.5.8-27.4,1.1v16.3l27.2-.5-.4,45.3c-11.3.4-21.1.8-26.8.9v12c5.6-.3,15.1-.7,26.7-1.2l-.3,36c-10.4.2-19.8.5-26.4.7v16c6.2,0,15.7,0,26.2-.1l-.4,41.7a38.94,38.94,0,0,0-5.3.3c-8.3.9-15.2,2-20.5,2.9v13.9c18.6-1.4,50.8-3.3,67.1-1.2,23.7,3,90.4,12.1,107.9,17.2s22.2,3.5,22.2,3.5l7.7-13.4s-10-84.9-5.3-121.7,18.7-100.3,18.7-100.3-.4-17.8,0-28.8S248,110,252.1,65.1Zm4.3,161H227.8c-.2-12-1.3-23-4-30.5a58.21,58.21,0,0,1-2-9.8c12.5-.6,23.1-1.2,29.7-1.6C253.6,199.6,255.4,214.3,256.4,226.1ZM250,172.4c-4.6.3-15.9,1.1-29.3,2.1-1.1-12-1.9-27.5-2.4-44.2,10.3-.7,19.2-1.3,25.4-1.7C245.6,141.6,247.9,157,250,172.4Zm-32.2-57c-.5-16.7-.8-33.8-1-49.1,8.4-1.6,15.7-3.1,20.5-4.1-.1,14.1.2,27.9,1.5,35.8.6,3.5,1.4,8.4,2.3,14.3C236.2,113,228.1,114,217.8,115.4Zm21-100.5s-.9,15.4-1.3,33.5c-5.1,1.3-12.4,3.1-20.8,5.3-.1-14-.2-25.4-.2-32.2ZM216.5,247.6s-2.9,21.8-7,46l-27.2-.9c1.3-18.8,1.8-32.8,1-37-.3-1.8-.8-6.5-1.5-13.1l33.9-.9C216.2,245.5,216.5,247.6,216.5,247.6Zm-2.7-21.5H180.3c-1-11.5-2.2-25-3.3-38.2,11-.5,22.2-1,32.7-1.5C211,200.8,212.6,215,213.8,226.1Zm-35-194.7a76.68,76.68,0,0,0,10-1.8c4.4-1.2,10.9-3.1,17.7-5.1-.1,7.3-.3,18.7-.5,32-5.6,1.5-11.4,3-17.3,4.6a91.89,91.89,0,0,1-13.3,2.3C176.7,50.6,178,39,178.8,31.4Zm-44.9,1.8c12,0,23.6-.2,33.4-.8-.6,7.1-1.6,18.8-2.6,32-9.4.8-20.3,1.4-31.6,1.9C133.4,52.3,133.7,40.5,133.9,33.2Zm-1,43.5c9.9-.3,17.9-.6,21.9-.6,2.2,0,5.4-.3,9.2-.7-1.2,16.2-2.2,33.2-2.6,45.9-9.1.2-19.2.3-29.5.2C132.2,106.7,132.5,91,132.9,76.7ZM94.3,32.3c8.6.3,17.9.6,27.2.7-.2,7.3-.6,19.2-.9,33.8-9.1.3-18.2.5-26.7.6Zm-.6,45.9c8.9-.4,18.1-.7,26.6-1.1-.3,13.7-.5,29-.6,44.3-9.1-.1-18.1-.3-26.5-.5Zm-.8,56.9h26.7c0,15.2.1,29.8.6,42.5-8.9-.5-18.5-1.1-27.8-1.7Zm-.6,52.1c7.2.4,13.7,1,18.2,1.6a81.56,81.56,0,0,0,10.3.5c.3,5.1.6,9.7,1,13.6,1,9.5,1.8,16.9,2.3,23.2H91.7ZM89.9,367.4c9.4-.4,19.5-.8,29.6-1.2-.1,12.5-.1,25.2-.1,37.2-9.4-.1-19.8,0-29.9.2Zm-1.3,95,.6-42c10.3-.1,20.9-.3,30.1-.6,0,19.4.2,35.7.2,44.9C107.7,463.6,97,462.8,88.6,462.4Zm30.9-108.1c-9.2.5-19.6.9-29.5,1.3l.6-45.1,29.9-.6C120,322.7,119.7,338.1,119.5,354.3Zm2.2-66.6c-.1,1.5-.3,3.2-.4,4.9-9.8.3-20.4.6-30.5,1l.6-48.5,33.4-.9C125,256,123.7,266.2,121.7,287.7Zm9.8-152.6h2c3.8,0,14.3-.5,27.6-1.3v1.3c.4,10,1.6,26.9,2.9,43-3.7.2-6.9.4-9.4.5-5,.2-13.7,0-24-.5C130.8,170.3,131.1,154.1,131.5,135.1Zm33.4,53.2c1.5,18.3,3,33.5,3,33.5s.1,1.5.3,4.2H135.7c-1.7-13.8-3.8-26.7-4.6-36.8C140.6,189.2,152.4,188.8,164.9,188.3ZM135.6,466.2v-47a184.28,184.28,0,0,1,24.7,2.2c-.6,21-.6,38.8.6,47.5C152.4,467.9,143.9,467,135.6,466.2Zm25.2-58.9c-5.1-1.1-9.2-1.9-12-2.4a107.32,107.32,0,0,0-13.1-1.1c0-12.2.1-25.2.2-38.1,9.8-.3,19.1-.6,27.1-.7C162,379,161.3,393.6,160.8,407.3Zm2.8-54.4c-8.3-.5-15.2-.7-19.3-.3-2.1.2-5,.5-8.5.7.1-15.5.3-30.5.5-43.7l30.5-.6C165.9,320.5,164.7,336,163.6,352.9Zm4.9-60.5c-6.1-.1-11.6-.2-16.1-.2-4.3,0-9.7,0-15.7.2.2-9.4.5-16.9.9-21.6a200,200,0,0,0-.2-26.8l31.7-.9A414.09,414.09,0,0,1,168.5,292.4Zm6-218.4c9.6-1.5,20.8-3.5,31.5-5.5-.1,15.8-.2,33.1,0,48.6-4.6.7-9.5,1.4-14.7,2.2a198.22,198.22,0,0,1-19.9,1.7C171.6,108.4,172.9,90.9,174.5,74Zm-3,59.2c11.1-.7,23.2-1.5,34.6-2.2.1,6.4.3,12.2.6,17.1.4,8.3,1.1,17.6,1.9,27.1-11.1.8-22.6,1.5-32.6,2.2-1.7-18.7-3.3-35.3-4.3-42.3A15.41,15.41,0,0,0,171.5,133.2Zm22.7,281.4c-7.6-1.7-15.2-3.4-22-4.8.3-11,1-22.8,2.4-34.7.4-3.4.8-6.8,1.1-10.3,3.2,0,5.9.1,7.9.2,3.4.2,7.2.6,11.1,1.2C193.6,379.9,193.7,397.5,194.2,414.6ZM174,470.3c-.8-8.4-2.1-25.8-2-47.1,7.5,1.2,15.2,2.7,22.7,4.1.9,20.8,2.3,38.9,2.9,45.7C190.2,472.1,182.2,471.2,174,470.3Zm22-114.5c-6.4-.7-12.9-1.3-19.1-1.9,1.6-15.6,3-31.1,4.2-45.1l25.9-.5c-2.9,15.6-6.1,30.6-9.2,39.7A45.12,45.12,0,0,0,196,355.8Zm10.7,35.4c.5-4.3,1.8-12.3,3.5-22,10,2.2,19.6,4.7,25.8,6.4-.6,4.8-1,9-1.1,12.2-.3,9.2.1,22.5.7,36.1l-29.7-6.7C205.9,405.8,206.1,396,206.7,391.2Zm-.2,82.8c-.2-9.6-.6-27.5-.7-44.5,12.7,2.6,23.8,5.1,30.3,6.7,1.2,22.1,2.6,41.8,2.6,41.8C236,477.7,223.6,476.1,206.5,474Zm31.6-113c-5.5-.7-14.9-2-25.8-3.2,2.8-16.1,6.1-34.7,8.6-49.6l26.6-.5C244,325.9,240.5,345.1,238.1,361Zm19.4-113.4c-.5,7.9-3.8,26.3-7.8,47.6-6.3-.3-15.8-.7-26.8-1.1.4-2.6.7-5,.9-7,1.3-11,3.1-28.4,3.8-45.8l29.8-.8A58.59,58.59,0,0,1,257.5,247.6Z" transform="translate(0 -0.3)" style="fill: #e9ded1"/>
  </g>
</svg>
