<svg id="Layer_1" data-name="Layer 1" xmlns="http://www.w3.org/2000/svg" width="1827.42" height="498.92" viewBox="0 0 1827.42 498.92">
  <title>basketball layered</title>
  <circle cx="250.53" cy="249.51" r="249.42" style="fill: #f17f3b"/>
  <g id="Layer_1-2" data-name="Layer 1">
    <path d="M1807.3,49.4c.4-18.1,1.3-33.5,1.3-33.5l-22.3,6.6c0,6.7.1,18.2.2,32.2C1794.8,52.5,1802.2,50.7,1807.3,49.4Z" transform="translate(-0.05 -1.08)" style="fill: none"/>
    <path d="M1807.1,63.2c-4.8,1-12.1,2.5-20.5,4.1.2,15.3.5,32.4,1,49.1,10.4-1.4,18.4-2.5,23.3-3.1-.9-5.9-1.7-10.8-2.3-14.3C1807.3,91.2,1806.9,77.4,1807.1,63.2Z" transform="translate(-0.05 -1.08)" style="fill: none"/>
    <path d="M1790.5,175.4c13.4-.9,24.7-1.7,29.3-2.1-2.1-15.4-4.4-30.8-6.4-43.9-6.1.4-15.1,1-25.4,1.7C1788.6,147.9,1789.4,163.5,1790.5,175.4Z" transform="translate(-0.05 -1.08)" style="fill: none"/>
    <path d="M1793.7,196.6c2.7,7.5,3.8,18.5,4,30.5h28.6c-1.1-11.8-2.9-26.5-4.9-41.9-6.6.4-17.1,1-29.7,1.6A60.51,60.51,0,0,0,1793.7,196.6Z" transform="translate(-0.05 -1.08)" style="fill: none"/>
    <path d="M1804.7,388.9c.1-3.2.5-7.4,1.1-12.2-6.2-1.7-15.7-4.3-25.8-6.4-1.7,9.7-3,17.7-3.5,22-.6,4.8-.8,14.6-.9,26,11.5,2.6,22.3,5,29.7,6.7C1804.8,411.4,1804.4,398,1804.7,388.9Z" transform="translate(-0.05 -1.08)" style="fill: none"/>
    <path d="M1797.5,242.4c-.6,17.4-2.5,34.8-3.8,45.8-.2,2-.6,4.4-.9,7,10.9.4,20.5.8,26.8,1.1,3.9-21.2,7.2-39.6,7.8-47.6.1-1.8.1-4.2,0-7Z" transform="translate(-0.05 -1.08)" style="fill: none"/>
    <path d="M1775.7,430.5c.1,17,.5,34.9.7,44.5,17,2,29.5,3.6,32.3,4,0,0-1.5-19.7-2.6-41.8C1799.4,435.7,1788.4,433.2,1775.7,430.5Z" transform="translate(-0.05 -1.08)" style="fill: none"/>
    <path d="M1782,358.7c10.9,1.3,20.3,2.5,25.8,3.2,2.5-15.8,6-35.1,9.4-53.4l-26.6.5C1788.2,324,1784.9,342.6,1782,358.7Z" transform="translate(-0.05 -1.08)" style="fill: none"/>
    <path d="M37.3,383.9s-63.8-92-24.4-229S215.6,6.6,241.9,2.9,397.7-10.2,474.6,134.3s-44.3,284-56.3,294.7C384.5,459,208.1,594.1,37.3,383.9Z" transform="translate(-0.05 -1.08)" style="fill: none"/>
    <polygon points="443.35 165.63 448.05 199.82 426.85 169.03 419.85 170.72 427.25 225.82 434.85 224.13 430.85 194.13 453.95 221.63 460.55 220.13 449.95 164.13 443.35 165.63" style="fill: #1a4253"/>
    <path d="M334.5,182.8l-9,59.4,12.2-1,1.8-18.9,16.2-.1,5.3,17,12.4-1.9L349.2,182Zm5.7,30,1.4-16.7h4.9l5.6,16.7Z" transform="translate(-0.05 -1.08)" style="fill: #1a4253"/>
    <path d="M395.2,198.6l14.2-11.5-.9-7-10.3-3.7L377,179.3l7.4,54.9,18.9-2.6,10.6-11.7-2.3-17.3Zm-4.1-13.8,8.8-1.2.5,3.4-8.4,4.6Zm5.5,41.2-2.4-17.4,10.9,1.7,1.2,8.6Z" transform="translate(-0.05 -1.08)" style="fill: #1a4253"/>
    <path d="M291.8,289.2c-.2-2.1-.3-4-.5-6,95.7-7.7,186.3-23.2,207.6-27a226.77,226.77,0,0,0,.5-36c-36.5,24.5-128.4,35.8-209.1,41-2.8-65.6,15.3-109.5,55.6-163.1,21.8-28.9,35.7-48.1,44.2-60.3q-6.3-4.2-12.6-7.8c-29.7,30.3-116,125.1-111.1,201.1.7,11.1,1.7,21.4,2.9,30.9-15.9.9-24.4,1.6-38.6,2.1-1.2-22.9-1.2-44.7.4-63.6C238.4,117.2,272,33.2,285.7,1.8c-7.6-.6-14.5-.8-20.6-.7C243,32.2,190.3,122.6,206,259.6c.2,1.7.4,3.3.6,5-8.1.2-22.4.4-29.2.5,2.6-26.9-.4-51.8-3.4-68.6-4.1-23.1-49.1-99.6-100.7-133A203.6,203.6,0,0,0,54.7,80.8c36.1,27.8,96.4,81.9,100.6,135.5,1.6,21.1,2.1,36.9,1.8,49.1-10.5.1-11.8.2-16.7.2-33.9,0-102.9-5-140-7.9.3,7,.9,13.7,1.6,20.1,27.1,3.7,76.3,8.5,154,9.5-2.4,20.1-18.9,43.6-25.4,57.1-7.9,16.4-43.1,54.4-62,74.2,6.9,6.9,13.8,13.2,20.7,19,17-20.7,53-66.3,67.8-99.6,5.4-12.2,15.7-38.2,17.9-50.6,8.7,0,24.2,0,33.1-.2,17.2,154.9,22.9,190.7,33.8,212.1h1.2c2.3,0,8-.1,15.6-.5.5,0,1-.1,1.5-.1.7-.1,1.4-.1,2.2-.2l2.6-.3c-1.9-8-26.5-113.9-33.5-211.6,15.4-.6,24.2-1.5,39.7-2.6,9.4,58.9,34.6,80.9,53,105.7,14.2,19.2,42.1,46.5,60.8,64.2.9-.6,1.8-1.2,2.6-1.7.1-.1.2-.1.3-.2,6.3-4.2,11.8-8.2,16.5-11.9C366.9,409.5,297.5,345.7,291.8,289.2Z" transform="translate(-0.05 -1.08)" style="fill: #1a4253"/>
  </g>
</svg>
